<svg width="1106" height="783" viewBox="0 0 1106 783" fill="none" xmlns="http://www.w3.org/2000/svg">
<path opacity="0.1" d="M367.381 782.3C421.196 782.3 464.821 775.293 464.821 766.65C464.821 758.007 421.196 751 367.381 751C313.567 751 269.941 758.007 269.941 766.65C269.941 775.293 313.567 782.3 367.381 782.3Z" fill="#6C63FF"/>
<path opacity="0.1" d="M897.051 782.739C964.203 782.739 1018.64 775.733 1018.64 767.089C1018.64 758.446 964.203 751.439 897.051 751.439C829.899 751.439 775.461 758.446 775.461 767.089C775.461 775.733 829.899 782.739 897.051 782.739Z" fill="#6C63FF"/>
<path opacity="0.1" d="M13.8417 338.199H115.332V476.529H21.2717C21.0217 477.949 20.7817 479.379 20.5217 480.809H115.332V592.369C115.162 592.319 115.012 592.259 114.852 592.199C112.172 591.139 109.512 590.019 106.852 588.819L105.152 588.049C102.485 586.789 99.8184 585.456 97.1517 584.049C96.2217 583.559 95.2917 583.049 94.3717 582.529C79.5675 574.236 66.1187 563.728 54.4917 551.369C54.1517 551.039 53.8317 550.689 53.4917 550.369C51.8717 548.609 50.2817 546.829 48.7417 545.009L47.0417 543.009C45.2217 540.779 43.4617 538.489 41.7517 536.169C41.5017 535.829 41.2617 535.489 41.0017 535.169C34.0472 525.527 28.2727 515.085 23.8017 504.069C23.6617 503.739 23.5417 503.379 23.4117 503.069C22.0384 499.536 20.8217 495.969 19.7617 492.369C19.3017 490.859 18.8617 489.369 18.4817 487.799C18.3417 487.339 18.2217 486.889 18.1117 486.439C12.4317 464.269 11.7617 441.239 11.7617 418.369C11.7617 415.699 11.7617 413.019 11.7617 410.369C11.7617 401.119 11.8717 391.809 12.0317 382.509C12.0317 380.099 12.1317 377.699 12.1817 375.279C12.3217 369.139 12.5217 362.999 12.7817 356.859C12.8417 355.149 12.9217 353.449 13.0117 351.749C13.0117 350.769 13.0617 349.789 13.1617 348.809C13.4017 345.249 13.6017 341.719 13.8417 338.199Z" fill="#6C63FF"/>
<path opacity="0.1" d="M115.33 184.18H59.6602C68.7096 170.016 78.5972 156.405 89.2701 143.42C97.5401 133.26 106.27 123.36 115.33 113.82V184.18Z" fill="#6C63FF"/>
<path opacity="0.1" d="M115.33 188.461V333.921H14.1602C14.1602 333.501 14.2302 333.071 14.2602 332.651C14.3502 331.501 14.4402 330.351 14.5402 329.211C14.6502 327.871 14.7702 326.521 14.9002 325.211C15.0302 323.901 15.1702 322.301 15.3202 320.851C15.4702 319.401 15.6102 317.931 15.7802 316.481C15.9502 315.031 16.1002 313.581 16.2802 312.141C16.4602 310.701 16.6202 309.241 16.8102 307.801C16.9602 306.601 17.1202 305.411 17.2802 304.211C17.5102 302.521 17.7502 300.821 18.0102 299.141C18.0102 298.891 18.0802 298.631 18.1202 298.391C19.9453 286.093 22.4323 273.902 25.5702 261.871C28.8547 249.251 33.0491 236.885 38.1202 224.871C43.5098 212.303 49.8203 200.15 57.0002 188.511L115.33 188.461Z" fill="#6C63FF"/>
<path opacity="0.1" d="M139.559 338.19V476.53H356.329V338.19H139.559ZM139.559 480.8V599.6C140.799 599.86 142.029 600.11 143.249 600.32C144.909 600.64 146.559 600.93 148.249 601.18C148.569 601.23 148.899 601.28 149.249 601.31C149.909 601.42 150.589 601.51 151.249 601.6C152.919 601.83 154.579 602.02 156.249 602.17C157.039 602.25 157.839 602.32 158.639 602.38L160.569 602.53C161.619 602.61 162.659 602.671 163.689 602.701C164.329 602.701 164.969 602.76 165.629 602.78C166.129 602.78 166.629 602.78 167.149 602.78C167.669 602.78 168.409 602.78 169.039 602.78C169.899 602.78 170.759 602.78 171.609 602.78H172.759C173.619 602.78 174.479 602.781 175.329 602.701H175.389C175.979 602.701 176.579 602.7 177.179 602.62C177.345 602.63 177.512 602.63 177.679 602.62C178.179 602.62 178.679 602.62 179.159 602.55H179.509L182.859 602.29C183.959 602.19 185.069 602.06 186.189 601.94L188.469 601.67C197.744 600.371 206.917 598.419 215.919 595.831C236.139 590.191 255.919 582.301 276.129 576.521C302.259 569.071 331.129 565.411 356.379 574.521V480.8H139.559ZM356.329 184.18V0.0104945C332.596 -0.246629 308.928 2.52917 285.899 8.2705C231.009 22.0605 181.759 51.9705 139.559 90.1705V184.171H150.439V188.441H139.559V333.92H356.329V188.451H195.109V184.18H356.329ZM634.759 121.971C621.179 121.491 607.679 117.19 595.469 110.55C572.119 97.8505 553.469 78.2405 532.629 61.6905C489.329 27.2205 435.629 6.42049 380.539 1.26049V184.18H689.989L690.759 183.37L634.759 121.971ZM662.949 116.971L692.839 149.77V108.37C682.829 109.61 674.059 112.56 662.989 116.93L662.949 116.971ZM692.839 629.1V480.8H629.149C628.979 480.17 628.809 479.531 628.609 478.891C628.799 479.531 628.959 480.17 629.139 480.8H380.579V588.05C382.939 589.8 385.269 591.64 387.579 593.51C390.069 595.51 392.529 597.62 394.999 599.69L397.489 601.75C398.679 602.75 399.879 603.75 401.089 604.69C403.489 606.637 405.912 608.557 408.359 610.451C409.569 611.451 410.809 612.35 412.039 613.29C431.566 628.22 452.165 641.693 473.669 653.6C478.489 656.267 483.352 658.87 488.259 661.41C491.529 663.08 494.819 664.74 498.119 666.35C503.079 668.77 508.079 671.104 513.119 673.35C559.585 694.209 608.72 708.522 659.119 715.88C670.312 717.534 681.549 718.834 692.829 719.78V629.09H693.829L692.839 629.1ZM380.579 188.451V333.92H692.879V188.451H380.579ZM380.579 338.19V476.53H692.879V338.19H380.579ZM717.119 108.191V154.37L755.269 112.51C742.629 110.47 729.912 109.014 717.119 108.141V108.191ZM717.119 338.24V476.53H1020.87V338.19L717.119 338.24ZM1019.76 640.081L1020.83 480.8H717.119V721.37C736.684 722.192 756.279 721.959 775.819 720.67V720.67H776.159C785.492 720.084 794.782 719.23 804.029 718.11H804.239C853.569 712.369 901.805 699.498 947.439 679.901M1079.44 360.97C1078.3 358.28 1077.11 355.61 1075.9 352.97C1073.64 347.97 1071.25 343.11 1068.79 338.25H1045.09V476.53H1105.01C1104.98 437.37 1095.07 397.37 1079.47 360.92L1079.44 360.97ZM1045.09 480.85V617.85C1061.97 601.67 1076.23 583.16 1086.5 562C1098.85 536.52 1104.5 508.931 1104.96 480.831L1045.09 480.85ZM1045.09 297.93V333.93H1066.57C1060.07 321.538 1052.91 309.504 1045.12 297.88L1045.09 297.93ZM839.089 135.331C837.509 134.731 835.929 134.121 834.339 133.531C817.569 127.338 800.433 122.188 783.029 118.111L724.649 182.18L723.529 183.37L724.279 184.191H932.059C903.121 164.271 871.923 147.853 839.119 135.281L839.089 135.331ZM938.149 188.501H721.379L717.119 192.4V333.92H754.459H754.519H1020.91V265.37C996.811 236.226 968.997 210.366 938.179 188.451L938.149 188.501Z" fill="#6C63FF"/>
<path opacity="0.1" d="M115.33 261.83V333.92H14.1602C14.1602 333.5 14.2302 333.07 14.2602 332.65C14.3502 331.5 14.4402 330.35 14.5402 329.21C14.6502 327.87 14.7702 326.52 14.9002 325.21C15.0302 323.9 15.1702 322.3 15.3202 320.85C15.4702 319.4 15.6102 317.93 15.7802 316.48C15.9502 315.03 16.1002 313.58 16.2802 312.14C16.4602 310.7 16.6202 309.24 16.8102 307.8C16.9602 306.6 17.1202 305.41 17.2802 304.21C17.5102 302.52 17.7502 300.82 18.0102 299.14C18.0102 298.89 18.0802 298.63 18.1202 298.39C19.9453 286.092 22.4323 273.901 25.5702 261.87L115.33 261.83Z" fill="#6C63FF"/>
<path opacity="0.1" d="M13.8417 338.199H115.332V476.529H21.2717C21.0217 477.949 20.7817 479.379 20.5217 480.809H115.332V592.369C115.162 592.319 115.012 592.259 114.852 592.199C112.172 591.139 109.512 590.019 106.852 588.819L105.152 588.049C102.485 586.789 99.8184 585.456 97.1517 584.049C96.2217 583.559 95.2917 583.049 94.3717 582.529C79.5675 574.236 66.1187 563.728 54.4917 551.369C54.1517 551.039 53.8317 550.689 53.4917 550.369C51.8717 548.609 50.2817 546.829 48.7417 545.009L47.0417 543.009C45.2217 540.779 43.4617 538.489 41.7517 536.169C41.5017 535.829 41.2617 535.489 41.0017 535.169C34.0472 525.527 28.2727 515.085 23.8017 504.069C23.6617 503.739 23.5417 503.379 23.4117 503.069C22.0384 499.536 20.8217 495.969 19.7617 492.369C19.3017 490.859 18.8617 489.369 18.4817 487.799C18.3417 487.339 18.2217 486.889 18.1117 486.439C12.4317 464.269 11.7617 441.239 11.7617 418.369C11.7617 415.699 11.7617 413.019 11.7617 410.369C11.7617 401.119 11.8717 391.809 12.0317 382.509C12.0317 380.099 12.1317 377.699 12.1817 375.279C12.3217 369.139 12.5217 362.999 12.7817 356.859C12.8417 355.149 12.9217 353.449 13.0117 351.749C13.0117 350.769 13.0617 349.789 13.1617 348.809C13.4017 345.249 13.6017 341.719 13.8417 338.199Z" fill="#6C63FF"/>
<path opacity="0.1" d="M215.869 209.28V333.92H139.559V209.28H150.439V167.08H195.099V209.28H215.869Z" fill="#6C63FF"/>
<path opacity="0.1" d="M215.87 338.189H139.57V476.519H215.87V338.189Z" fill="#6C63FF"/>
<path opacity="0.1" d="M139.559 480.811H215.869V595.811C206.867 598.397 197.694 600.345 188.419 601.641L186.139 601.921C185.019 602.051 183.909 602.161 182.809 602.271C181.709 602.381 180.569 602.461 179.459 602.531H179.109C178.629 602.531 178.109 602.591 177.639 602.601H177.129C176.529 602.601 175.929 602.661 175.329 602.681C174.479 602.731 173.629 602.741 172.759 602.751C172.389 602.751 172.039 602.751 171.669 602.751C170.809 602.751 169.959 602.751 169.099 602.751H167.209C166.699 602.751 166.209 602.751 165.679 602.751L163.749 602.681C162.749 602.681 161.669 602.571 160.629 602.501L158.709 602.361L156.319 602.141C154.639 601.991 152.969 601.801 151.319 601.571L149.319 601.291L148.319 601.151C146.649 600.891 144.999 600.611 143.319 600.291C142.089 600.081 140.869 599.821 139.629 599.571L139.559 480.811Z" fill="#6C63FF"/>
<path opacity="0.1" d="M692.881 194.561H629.961V333.911H692.881V194.561Z" fill="#6C63FF"/>
<path opacity="0.1" d="M692.888 338.189V476.529H380.578V416.859H546.928V452.059H629.958V338.189H692.888Z" fill="#6C63FF"/>
<path opacity="0.1" d="M693.878 629.13H692.878V719.88C681.611 718.927 670.378 717.63 659.178 715.99C608.754 708.608 559.599 694.265 513.118 673.37C499.698 667.33 486.551 660.737 473.678 653.59C452.174 641.677 431.573 628.204 412.038 613.28C407.131 609.52 402.288 605.674 397.508 601.74C394.198 599.01 390.908 596.21 387.578 593.49C385.268 591.62 382.938 589.78 380.578 588.02V480.81H629.128C628.958 480.17 628.788 479.53 628.608 478.9C628.798 479.53 628.978 480.17 629.148 480.81H692.878V629.07C693.218 629.08 693.548 629.11 693.878 629.13Z" fill="#6C63FF"/>
<path opacity="0.1" d="M856.98 184.18H815.98V171.44H834.36V133.49C835.954 134.07 837.54 134.667 839.12 135.28V171.44H856.98V184.18Z" fill="#6C63FF"/>
<path opacity="0.1" d="M955.761 333.921H754.481C754.481 333.921 754.481 333.921 754.551 333.971L754.461 333.921H717.121V194.571H727.701V297.571H776.051V236.571H815.991V188.461H856.991V236.611H896.931V297.611H955.761V333.921Z" fill="#6C63FF"/>
<path opacity="0.1" d="M717.121 338.189V476.529H955.761V338.189H717.121ZM1020.54 639.369L1020.87 529.869H955.761V480.869H717.121V721.369C736.686 722.191 756.281 721.958 775.821 720.669V720.669H776.161C785.494 720.083 794.784 719.229 804.031 718.109H804.241C853.572 712.368 901.808 699.497 947.441 679.899" fill="#6C63FF"/>
<path opacity="0.1" d="M1049.33 480.811H1105C1104.51 508.901 1098.87 536.491 1086.53 561.971C1076.26 583.141 1061.99 601.651 1045.13 617.821V529.821H1049.33V480.811Z" fill="#6C63FF"/>
<path opacity="0.1" d="M1105.03 476.53H1049.33V360.92H1079.47C1095.07 397.37 1104.98 437.37 1105.03 476.53Z" fill="#6C63FF"/>
<path opacity="0.1" d="M692.89 233.301H659.18V276.991H692.89V233.301Z" fill="#6C63FF"/>
<path opacity="0.1" d="M692.89 323.859H659.18V333.919H692.89V323.859Z" fill="#6C63FF"/>
<path opacity="0.1" d="M692.89 338.189H659.18V367.539H692.89V338.189Z" fill="#6C63FF"/>
<path opacity="0.1" d="M692.89 414.42H659.18V458.11H692.89V414.42Z" fill="#6C63FF"/>
<path opacity="0.1" d="M692.89 504.98H659.18V548.67H692.89V504.98Z" fill="#6C63FF"/>
<path opacity="0.1" d="M692.88 629.069C693.22 629.069 693.55 629.069 693.88 629.129H692.88V639.279H659.18V595.539H692.88V629.069Z" fill="#6C63FF"/>
<path opacity="0.1" d="M692.88 686.08V719.83C681.613 718.877 670.38 717.58 659.18 715.94V686.08H692.88Z" fill="#6C63FF"/>
<path opacity="0.1" d="M525.048 473.32H380.578V476.53H525.048V473.32Z" fill="#6C63FF"/>
<path opacity="0.1" d="M525.048 480.801H380.578V493.101H525.048V480.801Z" fill="#6C63FF"/>
<path opacity="0.1" d="M525.048 533.42H380.578V553.2H525.048V533.42Z" fill="#6C63FF"/>
<path opacity="0.1" d="M525.04 593.52V613.299H412.04C407.134 609.553 402.287 605.706 397.5 601.76C394.19 599.03 390.91 596.23 387.57 593.52H525.04Z" fill="#6C63FF"/>
<path opacity="0.1" d="M525.04 653.61V673.37H513.11C499.703 667.323 486.56 660.727 473.68 653.58L525.04 653.61Z" fill="#6C63FF"/>
<path opacity="0.1" d="M804.268 351.6H775.828V380.04H804.268V351.6Z" fill="#6C63FF"/>
<path opacity="0.1" d="M188.491 219.09H160.051V247.53H188.491V219.09Z" fill="#6C63FF"/>
<path opacity="0.1" d="M188.491 285.15H160.051V313.59H188.491V285.15Z" fill="#6C63FF"/>
<path opacity="0.1" d="M188.491 351.211H160.051V379.651H188.491V351.211Z" fill="#6C63FF"/>
<path opacity="0.1" d="M188.491 417.26H160.051V445.7H188.491V417.26Z" fill="#6C63FF"/>
<path opacity="0.1" d="M188.491 483.32H160.051V511.76H188.491V483.32Z" fill="#6C63FF"/>
<path opacity="0.1" d="M188.491 549.381H160.051V577.821H188.491V549.381Z" fill="#6C63FF"/>
<path opacity="0.1" d="M912.84 351.6H884.4V380.04H912.84V351.6Z" fill="#6C63FF"/>
<path opacity="0.1" d="M804.268 421.75H775.828V450.19H804.268V421.75Z" fill="#6C63FF"/>
<path opacity="0.1" d="M912.84 421.75H884.4V450.19H912.84V421.75Z" fill="#6C63FF"/>
<path opacity="0.1" d="M804.268 491.891H775.828V520.331H804.268V491.891Z" fill="#6C63FF"/>
<path opacity="0.1" d="M912.84 491.891H884.4V520.331H912.84V491.891Z" fill="#6C63FF"/>
<path opacity="0.1" d="M804.268 562.039H775.828V590.479H804.268V562.039Z" fill="#6C63FF"/>
<path opacity="0.1" d="M912.84 562.039H884.4V590.479H912.84V562.039Z" fill="#6C63FF"/>
<path opacity="0.1" d="M804.268 632.189H775.828V660.629H804.268V632.189Z" fill="#6C63FF"/>
<path opacity="0.1" d="M912.84 632.189H884.4V660.629H912.84V632.189Z" fill="#6C63FF"/>
<path opacity="0.1" d="M775.828 720.67V702.33H804.258V718.06L775.828 720.67Z" fill="#6C63FF"/>
<path opacity="0.1" d="M18 298.369V314.639H115.33V298.369H18ZM27.7 313.619H19.76V299.369H27.76L27.7 313.619ZM37.39 313.619H29.39V299.369H37.39V313.619ZM47.06 313.619H39.06V299.369H47.06V313.619ZM56.75 313.619H48.76V299.369H56.76L56.75 313.619ZM66.43 313.619H58.43V299.369H66.43V313.619ZM76.12 313.619H68.12V299.369H76.12V313.619ZM85.81 313.619H77.81V299.369H85.81V313.619ZM95.49 313.619H87.49V299.369H95.49V313.619ZM105.17 313.619H97.17V299.369H105.17V313.619ZM114.85 313.619H106.85V299.369H114.85V313.619Z" fill="#6C63FF"/>
<path opacity="0.1" d="M18 345.711V361.981H115.33V345.711H18ZM27.7 360.951H19.76V346.741H27.76L27.7 360.951ZM37.39 360.951H29.39V346.741H37.39V360.951ZM47.06 360.951H39.06V346.741H47.06V360.951ZM56.75 360.951H48.76V346.741H56.76L56.75 360.951ZM66.43 360.951H58.43V346.741H66.43V360.951ZM76.12 360.951H68.12V346.741H76.12V360.951ZM85.81 360.951H77.81V346.741H85.81V360.951ZM95.49 360.951H87.49V346.741H95.49V360.951ZM105.17 360.951H97.17V346.741H105.17V360.951ZM114.85 360.951H106.85V346.741H114.85V360.951Z" fill="#6C63FF"/>
<path opacity="0.1" d="M18 393.07V409.37H115.33V393.07H18ZM27.7 408.31H19.76V394.09H27.76L27.7 408.31ZM37.39 408.31H29.39V394.09H37.39V408.31ZM47.06 408.31H39.06V394.09H47.06V408.31ZM56.75 408.31H48.76V394.09H56.76L56.75 408.31ZM66.43 408.31H58.43V394.09H66.43V408.31ZM76.12 408.31H68.12V394.09H76.12V408.31ZM85.81 408.31H77.81V394.09H85.81V408.31ZM95.49 408.31H87.49V394.09H95.49V408.31ZM105.17 408.31H97.17V394.09H105.17V408.31ZM114.85 408.31H106.85V394.09H114.85V408.31Z" fill="#6C63FF"/>
<path opacity="0.1" d="M18 440.43V456.68H115.33V440.43H18ZM27.7 455.67H19.76V441.44H27.76L27.7 455.67ZM37.39 455.67H29.39V441.44H37.39V455.67ZM47.06 455.67H39.06V441.44H47.06V455.67ZM56.75 455.67H48.76V441.44H56.76L56.75 455.67ZM66.43 455.67H58.43V441.44H66.43V455.67ZM76.12 455.67H68.12V441.44H76.12V455.67ZM85.81 455.67H77.81V441.44H85.81V455.67ZM95.49 455.67H87.49V441.44H95.49V455.67ZM105.17 455.67H97.17V441.44H105.17V455.67ZM114.85 455.67H106.85V441.44H114.85V455.67Z" fill="#6C63FF"/>
<path opacity="0.1" d="M18.4219 487.779C18.8119 489.309 19.2519 490.839 19.7119 492.349V488.799H27.7119V503.019H23.4319C23.5619 503.349 23.6919 503.709 23.8219 504.019H115.332V487.779H18.4219ZM37.4219 503.019H29.4219V488.799H37.4219V503.019ZM47.0919 503.019H39.0919V488.799H47.0919V503.019ZM56.7819 503.019H48.7619V488.799H56.7619L56.7819 503.019ZM66.4619 503.019H58.4619V488.799H66.4619V503.019ZM76.1519 503.019H68.1519V488.799H76.1519V503.019ZM85.8419 503.019H77.8419V488.799H85.8419V503.019ZM95.5219 503.019H87.5219V488.799H95.5219V503.019ZM105.202 503.019H97.2019V488.799H105.202V503.019ZM114.882 503.019H106.882V488.799H114.882V503.019Z" fill="#6C63FF"/>
<path opacity="0.1" d="M41.0195 535.141C41.2695 535.461 41.5095 535.821 41.7695 536.141H47.0595V542.971C47.6295 543.651 48.1895 544.331 48.7695 544.971V536.101H56.7695V550.371H53.5295C53.8495 550.701 54.1595 551.051 54.5295 551.371H115.36V535.141H41.0195ZM66.4295 550.371H58.4295V536.161H66.4295V550.371ZM76.1195 550.371H68.1195V536.161H76.1195V550.371ZM85.8095 550.371H77.8095V536.161H85.8095V550.371ZM95.4895 550.371H87.4895V536.161H95.4895V550.371ZM105.17 550.371H97.1695V536.161H105.17V550.371ZM114.85 550.371H106.85V536.161H114.85V550.371Z" fill="#6C63FF"/>
<path opacity="0.1" d="M94.4102 582.49C95.3202 583.01 96.2502 583.49 97.1902 584.01V583.51H105.19V588.01L106.89 588.8V583.51H114.89V592.16C115.044 592.237 115.204 592.297 115.37 592.34V582.49H94.4102Z" fill="#6C63FF"/>
<path opacity="0.1" d="M754.48 333.92H754.541H754.48ZM692.88 629.06H693.88H692.88ZM628.61 478.89C628.8 479.53 628.96 480.17 629.14 480.8C628.98 480.17 628.81 479.53 628.61 478.89ZM754.48 333.89H754.541H754.48ZM150.48 184.15V188.42H195.15V184.15H150.48ZM692.88 629.06H693.88H692.88ZM628.61 478.89C628.8 479.53 628.96 480.17 629.14 480.8C628.98 480.17 628.81 479.53 628.61 478.89ZM754.48 333.89H754.541H754.48ZM692.88 629.03H693.88H692.88ZM628.61 478.89C628.8 479.53 628.96 480.17 629.14 480.8C628.98 480.17 628.81 479.53 628.61 478.89Z" fill="#6C63FF"/>
<path d="M461.599 379.67C461.599 379.67 457.659 379.12 457.659 373.38C457.659 367.64 454.839 356.92 454.839 356.92C454.839 356.87 452.399 338.25 449.029 335.29C445.659 332.33 441.329 314.95 441.329 314.95C441.329 314.95 440.589 305.52 439.079 303.49C437.569 301.46 435.529 296.49 432.519 289.4C429.509 282.31 416.959 277.4 416.959 277.4C416.959 277.4 394.269 264.24 387.839 259.95C387.254 259.598 386.708 259.186 386.209 258.72C385.089 257.25 380.209 257.22 380.209 257.22C379.699 254 379.209 250.3 379.049 246.95C379.049 246.59 379.049 246.23 378.999 245.87C386.169 241.632 391.569 234.95 394.209 227.05C394.329 226.67 394.429 226.27 394.539 225.89C394.969 225.749 395.364 225.519 395.7 225.216C396.035 224.913 396.304 224.543 396.489 224.13C397.069 222.84 397.079 221.33 397.799 220.13C398.639 218.71 400.239 217.95 401.499 216.88C404.679 214.18 405.499 209.63 405.349 205.49C405.249 202.14 404.709 198.76 404.919 195.43L404.979 194.59C405.039 194.09 405.109 193.59 405.199 193.11C405.689 190.63 406.759 188.29 407.359 185.83C407.959 183.37 408.019 180.6 406.619 178.48C404.569 175.37 400.299 174.75 396.549 174.43C392.299 174.07 388.499 174.54 385.779 171.01C384.506 169.165 383.074 167.435 381.499 165.84C380.939 165.32 375.499 162 375.499 161.78C370.189 159.321 364.171 158.86 358.549 160.48C355.729 161.3 353.069 162.64 350.209 163.31C344.039 164.77 336.939 163.19 331.699 166.72C328.779 168.72 327.029 171.9 325.389 175C324.056 177.554 322.702 180.104 321.329 182.65C319.119 186.84 316.869 191.1 315.939 195.74C315.743 196.75 315.623 197.773 315.579 198.8V198.85C315.579 199.22 315.579 199.59 315.579 199.96V200.43C315.579 200.78 315.579 201.12 315.639 201.43C315.699 201.74 315.689 201.84 315.719 202.05C315.749 202.26 315.799 202.73 315.859 203.05C315.919 203.37 316.039 203.93 316.159 204.37C316.209 204.56 316.279 204.74 316.339 204.92C316.439 205.26 316.559 205.59 316.689 205.92C316.759 206.09 316.829 206.27 316.909 206.44C317.059 206.79 317.239 207.13 317.419 207.44C317.499 207.58 317.559 207.71 317.639 207.84C317.918 208.305 318.225 208.753 318.559 209.18C320.699 211.85 323.849 213.55 326.179 216.05C326.179 216.15 326.179 216.25 326.179 216.34C326.179 216.62 326.179 216.89 326.179 217.17C326.303 222.746 327.787 228.207 330.502 233.078C333.217 237.949 337.082 242.083 341.759 245.12C341.759 245.5 341.809 245.89 341.829 246.27C342.024 249.239 341.987 252.218 341.719 255.18C341.312 254.701 340.802 254.319 340.227 254.063C339.653 253.806 339.028 253.683 338.399 253.7C337.969 253.679 337.539 253.716 337.119 253.81L337.029 253.74V253.83C334.829 254.37 332.119 256.66 329.529 263.17C329.529 263.17 321.649 272.05 315.649 271.68C309.649 271.31 294.459 280.92 294.459 280.92C294.459 280.92 279.639 290.54 276.459 300.34C274.681 305.898 272.55 311.335 270.079 316.62L251.759 354.37L248.379 384.32C248.379 384.32 250.249 397.64 249.879 399.67C249.509 401.7 257.569 420.01 257.569 420.01C257.569 420.01 284.199 466.8 295.079 469.2L295.859 468.65C296.324 468.894 296.818 469.078 297.329 469.2L299.569 467.62C299.703 469.381 299.646 471.152 299.399 472.9C297.899 477.52 299.959 507.67 302.579 513.58C305.199 519.49 304.269 596.98 304.269 596.98L303.899 603.82C303.899 603.82 303.899 604.04 303.989 604.42L303.899 606.04L304.169 606.18C304.449 608.35 304.358 610.551 303.899 612.69C302.959 615.69 302.579 624.17 302.579 624.17C302.579 624.17 295.089 672.05 298.639 681.67C302.189 691.29 305.209 701.83 305.209 701.83C305.209 701.83 308.959 713.83 305.389 715.88C301.819 717.93 291.669 721.37 293.759 726.37C295.659 730.99 302.869 743.37 303.939 745.18L303.849 746.13L302.379 762.06C302.617 764.164 303.187 766.216 304.069 768.14C305.679 771.61 308.809 775.21 314.759 774.82C315.759 774.75 316.919 774.63 318.039 774.48C328.929 773.02 342.339 768.16 342.339 768.16C341.643 767.718 341.004 767.191 340.439 766.59V766.59C339.904 766.072 339.48 765.45 339.192 764.762C338.905 764.075 338.761 763.336 338.769 762.59C338.929 759.69 333.499 745.87 332.149 742.47C331.939 741.98 331.829 741.7 331.829 741.7C331.829 741.7 344.209 728.76 342.149 717.29C342.149 717.29 328.449 709.29 332.959 704.9C337.469 700.51 345.529 687.9 345.529 687.9C345.529 687.9 345.899 640.75 345.529 633.71C345.143 628.824 345.375 623.909 346.219 619.08C346.369 618.35 346.549 617.64 346.739 616.94C352.976 617.871 359.273 618.349 365.579 618.37C367.879 618.37 370.219 618.37 372.579 618.23C372.579 618.897 372.609 619.617 372.669 620.39C373.189 632.07 374.159 652.55 374.949 660.16C376.069 671.07 382.259 700.47 382.259 700.47C382.259 700.47 370.449 708.05 384.319 726.73C384.319 726.73 384.319 733.5 383.399 734.48C382.417 737.684 381.625 740.943 381.029 744.24C380.449 747.76 380.209 751.32 381.149 753.17C383.399 757.59 396.899 757.23 396.899 757.23L397.229 757.17C399.778 756.907 402.353 757.152 404.806 757.892C407.259 758.632 409.541 759.852 411.519 761.48C416.649 765.6 436.119 763.79 446.659 762.48C450.789 761.96 453.549 761.48 453.549 761.48C453.683 761.013 453.73 760.525 453.689 760.04C453.579 757.45 451.549 751.77 437.789 746.7C437.789 746.7 424.849 738 425.029 730.42H424.759H423.259C424.349 730.36 425.049 730.42 425.049 730.42C425.049 730.42 419.979 711.92 422.049 710.42C424.119 708.92 417.919 688.42 417.919 688.42C417.919 688.42 414.369 654.02 414.179 651.61C414.187 649.542 414.5 647.487 415.109 645.51L414.179 626.65C414.179 626.65 413.999 620.38 414.179 618.34C414.149 616.57 414.005 614.803 413.749 613.05C413.659 612.35 413.569 611.62 413.469 610.9C418.319 609.67 421.469 608.53 421.469 608.53L420.909 542.88C425.029 534.88 425.789 517.33 425.769 504.88C425.769 496.88 425.409 490.96 425.409 490.96L431.039 481.77C431.039 481.77 432.339 470.77 430.279 468.36C429.369 467.27 429.779 466.14 430.529 465.21C430.918 464.902 431.329 464.621 431.759 464.37C431.759 464.37 431.699 464.28 431.629 464.15C432.022 463.822 432.44 463.524 432.879 463.26C432.879 463.26 430.879 460.16 432.669 458.85C434.349 459.99 435.849 460.85 436.989 461.55C436.909 462.28 436.829 462.7 436.829 462.7L437.309 461.7C438.409 462.32 439.079 462.7 439.079 462.7C439.079 462.7 447.899 445.13 447.709 442.54C447.519 439.95 453.709 429.04 453.709 429.04C453.709 429.04 454.459 423.31 457.839 420.91C461.219 418.51 460.459 401.12 460.459 401.12C460.459 401.12 461.399 392.06 463.649 388.36C465.899 384.66 461.599 379.67 461.599 379.67ZM292.839 371.96L293.009 376.15C292.009 374.54 291.289 373.38 291.289 373.38L292.839 371.96Z" fill="url(#paint0_linear_133_522)"/>
<path d="M439.56 455.109L437.4 464.309C437.4 464.309 420.1 455.479 416.98 444.259C413.86 433.039 422.2 428.779 422.2 428.779L438.32 435.609L439.56 455.109Z" fill="white"/>
<path opacity="0.1" d="M439.56 455.109L437.4 464.309C437.4 464.309 420.1 455.479 416.98 444.259C413.86 433.039 422.2 428.779 422.2 428.779L438.32 435.609L439.56 455.109Z" fill="black"/>
<path d="M342.468 768.219C342.468 768.219 326.468 774.099 315.468 774.839C309.628 775.229 306.558 771.649 304.978 768.199C304.115 766.281 303.558 764.24 303.328 762.149L304.758 746.299L305.518 737.859L328.888 731.789L332.198 741.909L332.508 742.679C333.838 746.059 339.168 759.809 339.008 762.679C339.002 763.414 339.143 764.143 339.425 764.821C339.707 765.5 340.123 766.115 340.648 766.629C341.185 767.234 341.796 767.769 342.468 768.219V768.219Z" fill="white"/>
<path d="M451.758 760.16C451.798 760.641 451.751 761.126 451.618 761.59C451.618 761.59 417.398 767.3 410.398 761.59C408.425 759.922 406.124 758.685 403.644 757.958C401.165 757.232 398.56 757.031 395.998 757.37C395.998 757.37 382.758 757.73 380.548 753.37C379.628 751.54 379.868 747.99 380.438 744.49C381.02 741.211 381.795 737.968 382.758 734.78L383.288 734.36L386.438 731.83L423.318 730.74H423.598C423.418 738.28 436.118 746.93 436.118 746.93C449.608 751.93 451.598 757.58 451.758 760.16Z" fill="white"/>
<path opacity="0.1" d="M451.761 760.16C451.796 760.642 451.745 761.126 451.611 761.59C451.611 761.59 417.401 767.3 410.401 761.59C408.429 759.923 406.13 758.687 403.652 757.96C401.174 757.234 398.571 757.033 396.011 757.37C396.011 757.37 382.761 757.73 380.561 753.37C379.641 751.53 379.871 747.99 380.441 744.49C385.541 745 393.591 746.27 396.751 749.3C401.531 753.91 409.631 758.51 414.601 758.87C418.491 759.12 441.761 759.86 451.761 760.16Z" fill="black"/>
<path opacity="0.1" d="M342.468 768.22C342.468 768.22 326.468 774.1 315.468 774.84C309.628 775.23 306.558 771.65 304.988 768.19C309.058 769.56 314.708 771 317.678 769.68C321.198 768.12 333.678 767.11 340.678 766.68C341.211 767.263 341.812 767.78 342.468 768.22V768.22Z" fill="black"/>
<path d="M366.208 294.369C353.008 289.239 336.028 272.289 340.268 264.369C341.21 262.371 341.77 260.213 341.918 258.009C342.191 255.017 342.231 252.008 342.038 249.009C341.741 244.098 341.15 239.209 340.268 234.369C340.268 234.369 381.478 235.299 379.078 241.369C378.378 243.149 378.268 246.239 378.458 249.699C378.648 253.159 379.148 257.069 379.668 260.379C380.388 264.919 381.108 268.379 381.108 268.379C381.108 268.379 378.588 271.909 377.108 272.099C375.628 272.289 385.148 301.679 366.208 294.369Z" fill="#CF6F80"/>
<path opacity="0.1" d="M332.48 742.679L332.17 743.019C319.85 728.119 304.95 746.689 304.95 746.689L304.73 746.299L305.49 737.859L328.86 731.789L332.17 741.909L332.48 742.679Z" fill="black"/>
<path opacity="0.1" d="M423.609 731.789C423.609 731.789 414.609 731.599 409.809 735.839C405.009 740.079 381.809 736.759 382.809 735.839C383.105 735.383 383.284 734.861 383.329 734.319L386.479 731.789L423.359 730.699C423.499 731.369 423.609 731.789 423.609 731.789Z" fill="black"/>
<path d="M347.809 614.779C347.139 616.436 346.63 618.154 346.289 619.909C345.455 624.715 345.224 629.606 345.599 634.469C345.969 641.469 345.599 688.379 345.599 688.379C345.599 688.379 337.689 700.889 333.279 705.299C328.869 709.709 342.279 717.629 342.279 717.629C344.279 729.029 332.159 741.909 332.159 741.909C319.839 727.009 304.939 745.589 304.939 745.589C304.939 745.589 296.839 731.589 294.819 726.589C292.799 721.589 302.729 718.129 306.219 716.099C309.709 714.069 306.049 702.099 306.049 702.099C306.049 702.099 303.099 691.609 299.599 682.039C296.099 672.469 303.459 624.829 303.459 624.829C303.459 624.829 303.839 616.369 304.749 613.419C305.208 611.291 305.3 609.099 305.019 606.939C304.959 606.209 304.889 605.599 304.839 605.189C304.789 604.779 304.749 604.589 304.749 604.589L304.889 604.349L309.889 595.029C309.889 595.029 350.209 608.909 347.809 614.779Z" fill="#6C63FF"/>
<path d="M423.609 730.691C423.609 730.691 414.609 730.501 409.809 734.691C405.009 738.881 381.809 735.611 382.809 734.691C383.809 733.771 383.729 726.961 383.729 726.961C370.119 708.381 381.729 700.841 381.729 700.841C381.729 700.841 375.649 671.591 374.549 660.741C373.779 653.161 372.829 632.791 372.319 621.161C372.099 616.161 371.969 612.721 371.969 612.721L383.089 610.481L384.519 610.191L411.339 604.811C411.339 604.811 412.079 609.811 412.579 613.901C412.828 615.647 412.968 617.407 412.999 619.171C412.819 621.171 412.999 627.431 412.999 627.431L413.909 646.201C413.314 648.169 413.008 650.214 412.999 652.271C413.179 654.661 416.669 688.881 416.669 688.881C416.669 688.881 422.739 709.301 420.669 710.771C418.599 712.241 423.609 730.691 423.609 730.691Z" fill="#6C63FF"/>
<path opacity="0.1" d="M379.08 241.369C378.38 243.149 378.27 246.239 378.46 249.699C372.94 253.023 366.594 254.723 360.152 254.602C353.709 254.482 347.432 252.547 342.04 249.019C341.743 244.105 341.152 239.213 340.27 234.369C340.27 234.369 381.48 235.279 379.08 241.369Z" fill="black"/>
<path d="M395.011 219.27C395.019 222.873 394.452 226.455 393.331 229.88C390.826 237.553 385.688 244.094 378.827 248.346C371.965 252.599 363.821 254.288 355.834 253.117C347.848 251.945 340.532 247.988 335.181 241.944C329.829 235.901 326.787 228.16 326.591 220.09C326.591 219.81 326.591 219.55 326.591 219.27C326.513 214.727 327.341 210.215 329.026 205.996C330.71 201.777 333.218 197.935 336.403 194.695C339.588 191.456 343.386 188.882 347.576 187.126C351.765 185.369 356.263 184.465 360.806 184.465C365.349 184.465 369.847 185.369 374.036 187.126C378.226 188.882 382.024 191.456 385.209 194.695C388.394 197.935 390.902 201.777 392.586 205.996C394.271 210.215 395.099 214.727 395.021 219.27H395.011Z" fill="#CF6F80"/>
<path opacity="0.1" d="M366.208 294.37C353.008 289.24 336.028 272.29 340.268 264.37C341.21 262.371 341.77 260.214 341.918 258.01L359.988 272.86L371.168 282.03L379.668 260.39C380.388 264.93 381.108 268.39 381.108 268.39C381.108 268.39 378.588 271.92 377.108 272.11C375.628 272.3 385.148 301.68 366.208 294.37Z" fill="black"/>
<path d="M412.941 360L397.851 613.5L378.171 614.79L327.211 467.8L335.571 293.29L337.331 256.42L359.991 275.03L371.181 284.2L379.931 261.93L396.201 276.11L412.941 360Z" fill="#6C63FF"/>
<path opacity="0.1" d="M347.812 614.779C347.141 616.437 346.632 618.154 346.292 619.909C331.972 617.698 318.064 613.353 305.032 607.019L304.762 606.879L304.852 605.269L304.902 604.429L309.902 595.109C309.902 595.109 350.212 608.909 347.812 614.779Z" fill="black"/>
<path opacity="0.1" d="M383.32 619.949C379.659 620.572 375.967 620.992 372.26 621.209C372.04 616.209 371.91 612.769 371.91 612.769L383.03 610.529L383.32 619.949Z" fill="black"/>
<path opacity="0.1" d="M412.521 613.949C405.411 615.799 394.431 617.879 384.601 616.579L384.461 610.239L411.281 604.859C411.281 604.859 412.021 609.809 412.521 613.949Z" fill="black"/>
<path opacity="0.1" d="M384.422 617.739C343.422 624.739 305.872 604.669 305.872 604.669L306.232 597.869C306.232 597.869 307.162 520.779 304.582 514.869C302.002 508.959 299.992 478.989 301.452 474.389C302.912 469.789 296.122 400.809 296.122 400.809L295.022 372.809L254.762 356.499L272.762 318.979C275.193 313.719 277.284 308.308 279.022 302.779C282.152 293.039 296.682 283.469 296.682 283.469C296.682 283.469 311.582 273.909 317.472 274.269C323.362 274.629 331.082 265.809 331.082 265.809C336.782 251.279 341.942 257.859 341.942 257.859C341.942 258.549 341.942 257.859 341.662 260.009C339.662 275.959 374.002 326.359 374.492 327.249L377.762 406.909L381.072 507.719L384.422 617.739Z" fill="black"/>
<path d="M383.319 617.741C342.319 624.741 304.759 604.671 304.759 604.671L305.129 597.871C305.129 597.871 306.059 520.781 303.469 514.871C300.879 508.961 298.879 478.991 300.349 474.391C301.819 469.791 295.019 400.811 295.019 400.811L293.909 372.811L253.629 356.441L271.629 318.921C274.055 313.658 276.146 308.247 277.889 302.721C281.009 292.981 295.549 283.411 295.549 283.411C295.549 283.411 310.449 273.851 316.329 274.211C322.209 274.571 329.939 265.751 329.939 265.751C335.649 251.221 341.939 257.801 341.939 257.801C341.939 258.491 341.339 258.801 341.659 259.951C346.059 275.421 372.899 326.301 373.389 327.191L376.699 406.851L380.009 507.661L383.319 617.741Z" fill="white"/>
<path opacity="0.1" d="M372.27 329.461C367.86 327.621 344.5 300.951 344.5 300.951V294.881C343.65 292.881 338.6 294.101 334.5 295.501L336.26 258.631L338.26 260.291C342.64 275.751 371.76 328.571 372.27 329.461Z" fill="black"/>
<path d="M373.382 327.25C368.962 325.41 345.602 298.74 345.602 298.74V292.67C344.752 290.67 339.702 291.89 335.602 293.29L337.372 256.42L339.372 258.08C343.762 273.54 372.892 326.37 373.382 327.25Z" fill="white"/>
<path opacity="0.1" d="M305.871 460.26C306.421 460.26 334.381 457.32 334.381 457.32C334.381 457.32 351.311 490.61 350.201 498.71C349.091 506.81 347.081 513.98 340.271 512.71C333.461 511.44 303.621 513.71 303.621 513.71L305.871 460.26Z" fill="black"/>
<path d="M304.762 458.049C305.312 458.049 333.272 455.109 333.272 455.109C333.272 455.109 350.192 488.409 349.092 496.499C347.992 504.589 345.962 511.769 339.162 510.499C332.362 509.229 302.512 511.499 302.512 511.499L304.762 458.049Z" fill="white"/>
<path d="M325.829 442.42C325.829 442.42 351.489 456.21 352.039 460.42C352.589 464.63 338.979 458.58 336.039 457.85C334.104 457.384 332.134 457.076 330.149 456.93L310.539 457.46L325.829 442.42Z" fill="#CF6F80"/>
<path opacity="0.1" d="M365.11 331.179C366.601 331.179 367.81 329.97 367.81 328.479C367.81 326.988 366.601 325.779 365.11 325.779C363.619 325.779 362.41 326.988 362.41 328.479C362.41 329.97 363.619 331.179 365.11 331.179Z" fill="black"/>
<path d="M365.11 330.08C366.601 330.08 367.81 328.871 367.81 327.38C367.81 325.889 366.601 324.68 365.11 324.68C363.619 324.68 362.41 325.889 362.41 327.38C362.41 328.871 363.619 330.08 365.11 330.08Z" fill="#3F3D56"/>
<path opacity="0.1" d="M370.079 448.06C371.57 448.06 372.779 446.851 372.779 445.36C372.779 443.869 371.57 442.66 370.079 442.66C368.588 442.66 367.379 443.869 367.379 445.36C367.379 446.851 368.588 448.06 370.079 448.06Z" fill="black"/>
<path d="M370.079 446.951C371.57 446.951 372.779 445.742 372.779 444.251C372.779 442.76 371.57 441.551 370.079 441.551C368.588 441.551 367.379 442.76 367.379 444.251C367.379 445.742 368.588 446.951 370.079 446.951Z" fill="#3F3D56"/>
<path opacity="0.1" d="M367.802 389.621C369.293 389.621 370.502 388.412 370.502 386.921C370.502 385.43 369.293 384.221 367.802 384.221C366.31 384.221 365.102 385.43 365.102 386.921C365.102 388.412 366.31 389.621 367.802 389.621Z" fill="black"/>
<path d="M367.802 388.519C369.293 388.519 370.502 387.31 370.502 385.819C370.502 384.328 369.293 383.119 367.802 383.119C366.31 383.119 365.102 384.328 365.102 385.819C365.102 387.31 366.31 388.519 367.802 388.519Z" fill="#3F3D56"/>
<path d="M430.04 456.37C430.04 456.37 431.88 459.13 430.04 460.42C428.2 461.71 430.22 464.83 430.22 464.83C430.22 464.83 425.63 467.52 427.65 469.94C429.67 472.36 428.39 483.29 428.39 483.29L422.87 492.43C422.87 492.43 423.2 498.32 423.22 506.28C423.22 518.7 422.49 536.16 418.45 544.12L419.01 609.43C419.01 609.43 399.68 616.49 383.5 614.34L381.1 509.54C381.1 509.54 384.6 450.11 385.89 438.71C386.645 432.792 386.953 426.825 386.81 420.86C386.81 420.86 386.26 403.02 384.41 394.74C384.41 394.74 382.41 358.87 382.21 348.94C382.12 344.19 382.37 330.33 382.65 317.15C382.96 302.74 383.31 289.15 383.31 289.15L379.66 260.27C379.66 260.27 383.31 259.9 384.41 261.37C384.903 261.83 385.439 262.242 386.01 262.6V262.6C392.31 266.86 414.57 279.96 414.57 279.96C414.57 279.96 426.89 284.86 429.84 291.88C432.79 298.9 434.84 303.88 436.27 305.88C437.7 307.88 438.48 317.28 438.48 317.28C438.48 317.28 442.72 334.58 446.03 337.51C449.34 340.44 451.76 359.08 451.76 359.08L422.51 382.08C422.51 382.08 419.94 420.34 419.39 421.82C418.84 423.3 430.04 456.37 430.04 456.37Z" fill="white"/>
<path d="M431.15 456.37C431.15 456.37 432.98 459.13 431.15 460.42C429.32 461.71 431.32 464.83 431.32 464.83C431.32 464.83 426.76 467.55 428.76 469.97C430.76 472.39 429.5 483.32 429.5 483.32L423.98 492.46C423.98 492.46 424.31 498.35 424.34 506.31C424.34 518.73 423.61 536.19 419.57 544.15L420.12 609.46C420.12 609.46 400.76 616.52 384.6 614.37L382.21 509.57C382.21 509.57 385.71 450.14 387 438.74C387.756 432.822 388.06 426.855 387.91 420.89C387.91 420.89 387.36 403.05 385.52 394.77C385.52 394.77 383.52 358.9 383.31 348.97C383.22 344.22 383.48 330.36 383.75 317.18C384.06 302.77 384.41 289.18 384.41 289.18L379.59 259.91C379.59 259.91 384.41 259.91 385.52 261.4C386.008 261.866 386.544 262.278 387.12 262.63C393.42 266.89 415.69 279.99 415.69 279.99C415.69 279.99 428 284.89 430.95 291.91C433.9 298.93 435.95 303.91 437.39 305.91C438.83 307.91 439.59 317.31 439.59 317.31C439.59 317.31 443.83 334.61 447.14 337.54C450.45 340.47 452.84 359.07 452.84 359.07L423.59 382.07C423.59 382.07 421.02 420.33 420.46 421.81C419.9 423.29 431.15 456.37 431.15 456.37Z" fill="white"/>
<path opacity="0.1" d="M396.119 297.67L398.759 305.37L384.859 319.37C385.169 304.97 385.519 291.37 385.519 291.37L380.699 262.1C380.699 262.1 385.519 262.1 386.629 263.59C387.116 264.054 387.653 264.463 388.229 264.81L400.049 298.91L396.119 297.67Z" fill="black"/>
<path d="M395.01 295.461L397.66 303.161L383.76 317.161C384.07 302.751 384.42 289.161 384.42 289.161L379.59 259.891C379.59 259.891 384.42 259.891 385.52 261.381C386.01 261.844 386.546 262.256 387.12 262.611L398.95 296.701L395.01 295.461Z" fill="white"/>
<path opacity="0.1" d="M395.011 219.27C395.019 222.873 394.452 226.455 393.331 229.88C393.142 229.909 392.949 229.901 392.764 229.854C392.578 229.808 392.404 229.725 392.251 229.61C391.991 220.61 387.561 212.16 382.111 204.97C380.581 202.799 378.726 200.876 376.611 199.27C374.473 197.664 371.813 196.912 369.151 197.16C366.151 197.57 363.501 199.61 360.471 199.87C356.471 200.2 352.891 197.43 348.921 197.29C347.307 197.305 345.715 197.664 344.251 198.344C342.787 199.023 341.485 200.007 340.431 201.23C338.345 203.697 336.796 206.571 335.881 209.67C334.309 214.368 333.452 219.277 333.341 224.23C333.291 227.03 333.021 230.54 330.421 231.56C330.617 229.501 330.383 227.423 329.734 225.459C329.085 223.495 328.035 221.687 326.651 220.15L326.591 220.09C326.591 219.81 326.591 219.55 326.591 219.27C326.513 214.727 327.341 210.215 329.026 205.996C330.71 201.777 333.218 197.935 336.403 194.695C339.588 191.456 343.386 188.882 347.576 187.126C351.765 185.369 356.263 184.465 360.806 184.465C365.349 184.465 369.847 185.369 374.036 187.126C378.226 188.882 382.024 191.456 385.209 194.695C388.394 197.935 390.902 201.777 392.586 205.996C394.271 210.215 395.099 214.727 395.021 219.27H395.011Z" fill="black"/>
<path d="M374.968 164.94C369.772 162.496 363.861 162.033 358.348 163.64C355.578 164.46 352.968 165.79 350.158 166.46C344.158 167.91 337.158 166.34 332.008 169.85C329.148 171.85 327.428 175.01 325.828 178.08L321.828 185.7C319.648 189.87 317.448 194.11 316.538 198.7C315.628 203.29 316.178 208.43 319.088 212.12C321.208 214.81 324.338 216.5 326.638 219.03C328.016 220.569 329.061 222.376 329.708 224.338C330.355 226.299 330.59 228.373 330.398 230.43C333.008 229.43 333.258 225.91 333.318 223.11C333.43 218.157 334.286 213.249 335.858 208.55C336.771 205.451 338.321 202.576 340.408 200.11C341.463 198.888 342.765 197.905 344.229 197.226C345.693 196.547 347.284 196.187 348.898 196.17C352.898 196.31 356.488 199.07 360.448 198.74C363.448 198.49 366.108 196.44 369.128 196.04C371.791 195.788 374.452 196.541 376.588 198.15C378.702 199.754 380.554 201.677 382.078 203.85C387.538 211.04 391.968 219.47 392.228 228.49C393.358 229.32 394.988 228.24 395.548 226.96C396.108 225.68 396.128 224.18 396.838 222.96C397.658 221.55 399.228 220.8 400.458 219.74C403.578 217.05 404.358 212.52 404.238 208.41C404.118 204.3 403.318 200.13 404.098 196.09C404.568 193.61 405.628 191.29 406.208 188.84C406.788 186.39 406.858 183.64 405.488 181.53C403.488 178.43 399.278 177.82 395.608 177.53C391.438 177.17 387.708 177.63 385.048 174.12C383.8 172.288 382.394 170.569 380.848 168.98C380.318 168.46 374.968 165.16 374.968 164.94Z" fill="#512E4E"/>
<path opacity="0.1" d="M266.28 375.82L255.83 356.5L252.52 386.31C252.52 386.31 254.36 399.55 253.99 401.58C253.62 403.61 261.53 421.81 261.53 421.81C261.53 421.81 287.66 468.35 298.33 470.75L334.38 444.99L324.82 432.85C324.82 432.85 321.51 431.56 320.68 432.85C320.68 432.85 302.93 402.31 301.09 400.1C299.25 397.89 299.61 393.48 299.61 393.48C299.61 393.48 296.85 390.54 297.77 387.78C298.69 385.02 292.44 375.45 292.44 375.45L298.14 370.12L266.28 375.82Z" fill="black"/>
<path d="M256.379 354.301L253.619 356.501L250.309 386.311C250.309 386.311 252.149 399.551 251.779 401.581C251.409 403.611 259.329 421.811 259.329 421.811C259.329 421.811 285.449 468.351 296.119 470.751L332.179 444.991L322.609 432.851C322.609 432.851 319.299 431.561 318.469 432.851C318.469 432.851 300.719 402.311 298.879 400.101C297.039 397.891 297.409 393.481 297.409 393.481C297.409 393.481 294.649 390.541 295.569 387.781C296.489 385.021 290.229 375.451 290.229 375.451L295.929 370.121L256.379 354.301Z" fill="white"/>
<path opacity="0.1" d="M427.652 471.08C429.652 473.51 428.392 484.42 428.392 484.42L422.872 493.56C422.872 493.56 423.202 499.46 423.222 507.41L413.942 510.31C413.103 510.571 412.214 510.629 411.348 510.477C410.483 510.326 409.666 509.97 408.967 509.438C408.267 508.907 407.704 508.216 407.326 507.423C406.948 506.63 406.765 505.758 406.792 504.88L408.392 453.27L430.042 461.55C428.202 462.83 430.222 465.97 430.222 465.97C430.222 465.97 425.632 468.65 427.652 471.08Z" fill="black"/>
<path d="M428.759 469.97C430.759 472.4 429.499 483.32 429.499 483.32L423.979 492.46C423.979 492.46 424.309 498.35 424.339 506.31L414.889 509.26C414.068 509.515 413.197 509.571 412.35 509.421C411.503 509.272 410.704 508.923 410.019 508.402C409.334 507.882 408.784 507.206 408.413 506.429C408.043 505.653 407.863 504.8 407.889 503.94L409.499 452.17L431.159 460.45C429.309 461.73 431.329 464.86 431.329 464.86C431.329 464.86 426.759 467.55 428.759 469.97Z" fill="white"/>
<path d="M435.929 445.371C435.929 445.371 434.459 454.761 430.779 455.311C427.099 455.861 425.449 470.501 421.779 469.981C418.109 469.461 420.539 456.371 420.669 453.831C420.799 451.291 416.669 440.771 419.759 438.381C422.849 435.991 432.629 438.381 432.629 438.381L435.929 445.371Z" fill="#CF6F80"/>
<path opacity="0.1" d="M443.762 373.061L450.702 359.061C450.702 359.061 453.462 369.731 453.462 375.431C453.462 381.131 457.322 381.691 457.322 381.691C457.322 381.691 461.552 386.691 459.322 390.331C457.092 393.971 456.192 403.031 456.192 403.031C456.192 403.031 456.922 420.321 453.612 422.711C450.302 425.101 449.612 430.811 449.612 430.811C449.612 430.811 443.532 441.661 443.722 444.241C443.912 446.821 435.262 464.291 435.262 464.291C435.262 464.291 439.492 442.581 414.842 433.201C414.842 433.201 414.652 425.831 416.492 423.811C418.332 421.791 421.202 420.871 419.402 410.661C417.602 400.451 418.882 388.251 418.882 385.801C418.882 383.351 424.402 368.071 424.402 368.071L443.762 373.061Z" fill="black"/>
<path d="M446.761 357.061L452.821 359.061C452.821 359.061 455.591 369.731 455.591 375.431C455.591 381.131 459.451 381.691 459.451 381.691C459.451 381.691 463.681 386.691 461.451 390.331C459.221 393.971 458.331 403.031 458.331 403.031C458.331 403.031 459.061 420.321 455.751 422.711C452.441 425.101 451.701 430.811 451.701 430.811C451.701 430.811 445.631 441.661 445.821 444.241C446.011 446.821 437.351 464.291 437.351 464.291C437.351 464.291 441.591 442.581 416.931 433.201C416.931 433.201 416.751 425.831 418.591 423.811C420.431 421.791 423.301 420.871 421.501 410.661C419.701 400.451 420.981 388.251 420.981 385.801C420.981 383.351 426.501 368.071 426.501 368.071L446.761 357.061Z" fill="white"/>
<path opacity="0.1" d="M312.91 719.93C312.91 719.93 322.57 713.86 328.91 718.27C335.25 722.68 312.91 719.93 312.91 719.93Z" fill="black"/>
<path opacity="0.1" d="M387.969 701.159C387.969 701.159 396.519 700.059 403.699 707.789C410.879 715.519 387.969 701.159 387.969 701.159Z" fill="black"/>
<g opacity="0.1">
<path d="M400.481 217.55C399.251 218.61 397.671 219.37 396.851 220.78C396.151 221.99 396.131 223.48 395.571 224.78C395.011 226.08 393.381 227.14 392.251 226.32C391.991 217.32 387.551 208.87 382.101 201.67C380.578 199.497 378.726 197.574 376.611 195.97C374.471 194.361 371.807 193.609 369.141 193.86C366.141 194.27 363.501 196.31 360.471 196.56C356.471 196.9 352.881 194.13 348.911 193.99C347.298 194.006 345.707 194.367 344.244 195.048C342.782 195.729 341.482 196.715 340.431 197.94C338.344 200.402 336.794 203.274 335.881 206.37C334.31 211.069 333.454 215.977 333.341 220.93C333.281 223.72 333.021 227.2 330.441 228.24C330.501 228.979 330.501 229.721 330.441 230.46C333.041 229.46 333.301 225.94 333.361 223.14C333.473 218.187 334.329 213.278 335.901 208.58C336.814 205.481 338.364 202.606 340.451 200.14C341.504 198.919 342.805 197.936 344.267 197.256C345.729 196.577 347.319 196.217 348.931 196.2C352.931 196.34 356.531 199.1 360.491 198.77C363.491 198.52 366.151 196.47 369.161 196.07C371.827 195.818 374.491 196.571 376.631 198.18C378.746 199.784 380.598 201.707 382.121 203.88C387.571 211.07 392.011 219.5 392.271 228.52C393.401 229.35 395.031 228.27 395.591 226.99C396.151 225.71 396.171 224.21 396.871 222.99C397.691 221.58 399.271 220.83 400.501 219.77C403.621 217.08 404.401 212.55 404.281 208.44C404.281 208.31 404.281 208.18 404.281 208.06C404.091 211.62 403.141 215.25 400.481 217.55Z" fill="black"/>
<path d="M326.66 216.84C324.36 214.31 321.22 212.62 319.11 209.94C317.333 207.568 316.318 204.712 316.2 201.75C315.885 205.451 316.919 209.141 319.11 212.14C321.22 214.83 324.36 216.52 326.66 219.05C328.868 221.525 330.194 224.662 330.43 227.97C330.583 225.957 330.328 223.933 329.68 222.02C329.032 220.108 328.005 218.346 326.66 216.84V216.84Z" fill="black"/>
<path d="M406.229 186.65C405.639 189.1 404.589 191.43 404.109 193.9C403.824 195.55 403.72 197.227 403.799 198.9C403.832 197.947 403.936 196.998 404.109 196.06C404.589 193.58 405.639 191.26 406.229 188.81C406.573 187.459 406.684 186.059 406.559 184.67C406.496 185.337 406.386 185.999 406.229 186.65V186.65Z" fill="black"/>
</g>
<path opacity="0.1" d="M132.729 760.589C186.544 760.589 230.169 753.582 230.169 744.939C230.169 736.296 186.544 729.289 132.729 729.289C78.9144 729.289 35.2891 736.296 35.2891 744.939C35.2891 753.582 78.9144 760.589 132.729 760.589Z" fill="#6C63FF"/>
<path d="M135.872 445.141H129.602V586.311H135.872V445.141Z" fill="#535461"/>
<path d="M175.271 585.881L174.881 592.241L174.321 601.241L174.091 604.981L173.541 613.981L173.301 617.721L172.741 626.721L166.421 728.791C166.147 733.182 164.209 737.304 161.002 740.318C157.796 743.331 153.562 745.009 149.161 745.011H116.301C111.902 745.009 107.669 743.331 104.464 740.317C101.259 737.303 99.3237 733.182 99.0515 728.791L92.7615 626.651L92.2015 617.651L91.9715 613.911L91.4115 604.911L91.1815 601.171L90.6215 592.171L90.2215 585.811C90.152 584.587 90.3334 583.361 90.7545 582.21C91.1755 581.058 91.8274 580.005 92.6702 579.115C93.5129 578.224 94.5288 577.515 95.6553 577.031C96.7819 576.547 97.9954 576.299 99.2215 576.301H166.431C167.653 576.311 168.859 576.572 169.976 577.067C171.093 577.562 172.096 578.28 172.925 579.178C173.753 580.075 174.389 581.133 174.792 582.286C175.196 583.439 175.359 584.662 175.271 585.881V585.881Z" fill="#3F3D56"/>
<path d="M174.878 592.24L174.318 601.21H91.1381L90.5781 592.24H174.878Z" fill="#9D9CB5"/>
<path d="M174.091 604.949L173.541 613.929H91.9311L91.3711 604.949H174.091Z" fill="#9D9CB5"/>
<path d="M173.3 617.68L172.75 626.65H92.7202L92.1602 617.68H173.3Z" fill="#9D9CB5"/>
<path d="M81.0117 498.051C117.522 524.471 132.762 565.791 132.762 565.791C132.762 565.791 88.7617 564.281 52.2417 537.861C15.7217 511.441 0.511719 470.131 0.511719 470.131C0.511719 470.131 44.4917 471.631 81.0117 498.051Z" fill="#9690F8"/>
<path d="M0.480469 470.131C0.480469 470.131 46.1605 495.481 60.8105 516.471C75.4605 537.461 132.76 565.791 132.76 565.791" stroke="#535461" stroke-width="2" stroke-miterlimit="10"/>
<path d="M104.582 444.831C124.452 459.201 132.762 481.691 132.762 481.691C132.762 481.691 108.812 480.871 88.9317 466.501C69.0517 452.131 60.7617 429.631 60.7617 429.631C60.7617 429.631 84.7017 430.451 104.582 444.831Z" fill="#9690F8"/>
<path d="M60.7617 429.631C60.7617 429.631 85.6217 443.431 93.5917 454.851C101.562 466.271 132.762 481.691 132.762 481.691" stroke="#535461" stroke-width="2" stroke-miterlimit="10"/>
<path d="M161.609 480.551C138.779 505.641 133.949 538.431 133.949 538.431C133.949 538.431 166.139 530.531 188.949 505.431C211.759 480.331 216.609 447.551 216.609 447.551C216.609 447.551 184.439 455.461 161.609 480.551Z" fill="#9690F8"/>
<path d="M216.629 447.561C216.629 447.561 186.889 473.281 179.329 491.001C171.769 508.721 133.949 538.431 133.949 538.431" stroke="#535461" stroke-width="2" stroke-miterlimit="10"/>
<path d="M999.671 471.721C999.671 471.721 983.16 389.581 989.48 379.361C989.48 379.361 989.71 369.861 989.33 357.751C989.33 357.291 989.33 356.831 989.33 356.361C990.442 357.102 991.602 357.77 992.801 358.361C998.623 361.352 1005.31 362.215 1011.7 360.801L1006.7 355.231C1005.5 353.901 1004.25 352.461 1003.99 350.701C1003.73 348.941 1004.45 347.371 1005.07 345.801C1009.82 333.801 1010.07 318.711 1000.92 309.551C993.191 301.851 991.311 291.911 982.921 284.881C976.791 279.731 973.42 272.181 970.24 264.881C967.55 258.711 964.84 252.491 963.3 245.951C962.1 240.841 961.621 235.551 959.971 230.561C958.321 225.571 955.231 220.721 950.401 218.491C948.681 217.701 946.771 217.251 945.201 216.201C943.141 214.811 941.901 212.551 940.411 210.571C932.841 200.571 907.49 206.461 895.49 210.521C892.228 211.543 889.207 213.217 886.61 215.441L886.721 215.261C886.811 215.111 886.921 214.961 887.021 214.811C885.707 215.873 884.573 217.139 883.661 218.561C881.911 221.331 881.181 224.561 879.721 227.561C877.961 231.111 868.17 241.021 872.38 245.011C872.676 245.279 873.014 245.495 873.38 245.651C874.961 246.308 876.701 246.482 878.38 246.151L878.201 246.581C876.763 250.101 876.026 253.868 876.031 257.671C876.031 274.101 889.58 287.421 906.31 287.421C909.456 287.424 912.582 286.941 915.581 285.991C915.651 286.371 915.711 286.751 915.781 287.131C915.781 287.281 915.831 287.431 915.851 287.581L915.32 288.321C915.294 288.275 915.264 288.232 915.23 288.191L899.531 310.131C897.131 311.821 883.311 321.821 882.531 329.321C881.711 337.531 880.891 347.141 880.891 347.141L880.781 349.201C880.094 349.774 879.292 350.192 878.429 350.425C877.565 350.658 876.662 350.701 875.781 350.551C870.881 349.751 870.88 368.551 870.88 368.551C870.88 368.551 867.62 371.551 865.38 368.951C863.14 366.351 857.221 375.161 857.221 375.161L820.12 376.761L819.271 376.811L817.271 370.621C817.055 369.968 816.591 369.426 815.979 369.113C815.367 368.801 814.656 368.742 814 368.951C813.846 369.002 813.695 369.065 813.55 369.141L813.411 369.221L813.151 369.401L813.021 369.521C812.949 369.586 812.882 369.656 812.82 369.731L812.701 369.871L812.641 369.931C812.41 370.25 812.257 370.619 812.194 371.008C812.132 371.397 812.161 371.795 812.281 372.171L814 377.481C806.84 378.921 799.52 382.981 805.49 394.161L775.23 388.571L785.021 396.791L835.56 407.221C834.89 408.421 835.33 410.161 837.42 412.611C846.42 423.181 862.82 426.051 869.42 426.791C871.163 430.69 873.341 434.38 875.911 437.791L875.341 448.321C875.341 448.321 858.63 528.581 855.57 532.651C857.115 530.9 858.529 529.039 859.8 527.081C854.95 543.571 848.171 566.141 846.391 569.521C843.531 574.921 840.881 596.771 844.141 598.171C845.141 598.601 848.001 598.391 852.081 598.081V599.891L851.901 668.481C851.901 668.481 852.721 710.551 850.471 714.561C848.221 718.571 847.62 726.981 847.62 726.981C847.62 726.981 838.62 743.571 831.49 750.241C831.442 750.293 831.388 750.339 831.331 750.381L831.11 748.821C831.11 748.821 822.541 759.641 803.581 759.031C803.581 759.031 792.171 766.451 809.091 766.851C826.011 767.251 847.62 766.251 847.62 766.251C847.62 766.251 862.711 743.251 875.351 746.251V763.681H879.221V745.971C881.015 744.789 882.551 743.255 883.736 741.463C884.92 739.67 885.728 737.655 886.11 735.541C886.442 733.361 886.199 731.133 885.406 729.076C884.614 727.019 883.299 725.204 881.591 723.811C880.823 723.117 880.208 722.272 879.782 721.329C879.357 720.386 879.132 719.365 879.12 718.331L878.98 718.451C878.98 718.101 878.891 717.741 878.851 717.371C877.741 708.371 876.35 689.801 881.26 676.061C887.99 657.221 890.03 630.981 885.13 615.361C883.549 610.368 882.251 605.29 881.24 600.151C881.12 599.501 881.011 598.881 880.911 598.301C884.26 598.754 887.577 599.422 890.841 600.301C902.191 603.431 927.021 604.011 948.221 603.841C948.271 604.421 948.331 605.031 948.401 605.641C948.778 609.881 949.569 614.074 950.76 618.161C953.42 626.161 954.641 661.431 954.641 661.431C954.641 661.431 958.071 690.431 956.201 702.231C955.201 708.791 954.2 715.381 953.63 722.001V722.131C953.63 722.131 948.011 738.131 943.901 746.821C943.801 747.041 943.691 747.261 943.591 747.471C942.495 747.571 941.416 747.809 940.38 748.181C940.38 748.181 934.87 759.181 929.38 761.001C923.89 762.821 925.711 768.811 938.141 766.611C950.571 764.411 969.341 762.611 969.341 762.611L970.151 751.391L973.971 746.611L972.971 757.801L977.041 757.001L976.5 743.391L982.75 735.571C982.75 735.571 990.3 728.851 979.08 715.631V715.921C978.96 715.731 978.85 715.531 978.72 715.341V715.281C976.86 712.401 975.38 707.031 978.09 697.501C982.99 680.281 985.84 664.651 985.84 664.651C985.84 664.651 996.78 622.781 983.63 602.971H984.21C982.863 600.183 981.91 597.221 981.38 594.171C981.314 593.811 981.254 593.441 981.2 593.061C990.93 592.501 1000.48 590.741 1008.27 586.941C1008.24 586.901 1003.55 487.541 999.671 471.721ZM876.141 402.421V402.621L874.141 402.721L876.141 402.421ZM869.281 403.371C868.952 403.444 868.644 403.591 868.38 403.801C867.521 405.017 866.981 406.431 866.81 407.911L863.69 407.211C863.69 407.211 861.501 406.741 858.351 406.211L856.86 404.711C860.96 404.371 865.221 403.871 869.281 403.371V403.371Z" fill="url(#paint1_linear_133_522)"/>
<path d="M972.51 743.529L971.32 757.699L975.31 756.899L974.71 741.529L972.51 743.529Z" fill="#1D2366"/>
<path d="M881.481 676.25C876.671 689.95 878.031 708.44 879.111 717.42C879.511 720.74 879.881 722.76 879.881 722.76C879.881 722.76 872.691 739.14 872.091 739.76C871.491 740.38 850.931 752.93 850.931 752.93L836.561 761.32C836.561 761.32 821.981 754.93 828.971 752.73C830.399 752.157 831.685 751.28 832.741 750.16C839.741 743.51 848.531 726.98 848.531 726.98C848.531 726.98 849.131 718.59 851.331 714.6C853.531 710.61 852.731 668.68 852.731 668.68L852.901 600.33V591.42L880.251 591.62C880.423 594.645 880.818 597.653 881.431 600.62C882.413 605.741 883.685 610.803 885.241 615.78C890.061 631.37 888.061 657.48 881.481 676.25Z" fill="#FFB0B1"/>
<path opacity="0.1" d="M879.881 722.759C879.881 722.759 872.691 739.139 872.091 739.759C871.491 740.379 850.931 752.929 850.931 752.929L836.561 761.319C836.561 761.319 821.981 754.929 828.971 752.729C830.399 752.156 831.685 751.279 832.741 750.159L833.361 754.529L838.151 754.329L879.151 717.439C879.511 720.739 879.881 722.759 879.881 722.759Z" fill="black"/>
<path d="M879.38 718.369L838.15 755.509L833.36 755.709L832.36 748.709C832.36 748.709 823.98 759.489 805.36 758.889C805.36 758.889 794.18 766.279 810.75 766.679C827.32 767.079 848.48 766.079 848.48 766.079C848.48 766.079 863.26 743.079 875.63 746.079V763.449H879.43V745.919C881.197 744.73 882.705 743.195 883.863 741.408C885.021 739.621 885.806 737.618 886.17 735.519C886.499 733.358 886.266 731.148 885.494 729.102C884.722 727.056 883.436 725.244 881.76 723.839C881.012 723.138 880.415 722.29 880.005 721.35C879.596 720.409 879.383 719.395 879.38 718.369V718.369Z" fill="#1D2366"/>
<path d="M976.311 697.611C973.651 707.111 975.101 712.461 976.921 715.331V715.391C979.255 718.934 980.878 722.898 981.701 727.061L981.861 727.961L963.101 755.311L952.921 759.311C952.921 759.311 936.551 753.721 939.541 752.121C940.291 751.731 941.461 749.651 942.801 746.781C946.801 738.131 952.321 722.171 952.321 722.171V722.041C952.901 715.451 953.821 708.881 954.841 702.341C956.671 690.571 953.311 661.681 953.311 661.681C953.311 661.681 952.111 626.551 949.511 618.561C948.337 614.498 947.557 610.332 947.181 606.121C946.641 601.121 946.521 597.001 946.521 597.001C946.521 597.001 957.301 582.001 977.061 598.201C978.641 599.493 980.031 601.001 981.191 602.681C994.841 622.101 983.851 664.881 983.851 664.881C983.851 664.881 981.101 680.441 976.311 697.611Z" fill="#FFB0B1"/>
<path opacity="0.1" d="M981.89 727.96L963.13 755.31L952.95 759.31C952.95 759.31 936.58 753.72 939.57 752.12C940.32 751.73 941.49 749.65 942.83 746.78C949.76 746.72 953.35 753.32 953.35 753.32L962.13 751.92C962.13 751.92 973.71 729.16 976.31 727.77C978.91 726.38 976.71 717.38 976.71 717.38V715.09C976.78 715.17 976.84 715.26 976.92 715.34V715.4C979.254 718.943 980.878 722.907 981.7 727.07L981.89 727.96Z" fill="black"/>
<path d="M953.949 753.91C953.949 753.91 948.949 744.73 939.369 748.12C939.369 748.12 933.98 759.12 928.59 760.9C923.2 762.68 924.999 768.68 937.179 766.49C949.359 764.3 967.72 762.49 967.72 762.49L968.519 751.3L980.899 735.53C980.899 735.53 988.28 728.84 977.3 715.67V717.96C977.3 717.96 979.499 726.96 976.899 728.35C974.299 729.74 962.759 752.51 962.759 752.51L953.949 753.91Z" fill="#1D2366"/>
<path opacity="0.1" d="M880.278 591.6C880.451 594.625 880.845 597.633 881.458 600.6C870.198 598.95 859.748 599.77 852.898 600.31V591.4L880.278 591.6Z" fill="black"/>
<path opacity="0.1" d="M982.301 605.171C982.301 605.171 966.301 605.951 947.221 606.111C946.681 601.111 946.561 596.991 946.561 596.991C946.561 596.991 957.341 581.991 977.101 598.191C978.681 599.483 980.071 600.991 981.231 602.671C981.54 603.523 981.898 604.358 982.301 605.171V605.171Z" fill="black"/>
<path d="M982.302 603.37C982.302 603.37 912.222 606.76 890.862 600.77C869.502 594.78 848.332 599.97 845.142 598.58C841.952 597.19 844.542 575.42 847.342 570.03C850.142 564.64 865.502 510.13 865.502 510.13L880.282 433.07L895.852 428.78L896.952 428.47L924.082 420.99L943.962 415.5C943.962 415.5 983.492 569.83 980.102 581.21C978.871 585.568 978.672 590.152 979.522 594.6C980.04 597.637 980.975 600.589 982.302 603.37V603.37Z" fill="#1D2366"/>
<path d="M828.761 380.369C828.761 380.369 814.761 395.369 825.361 403.729C835.961 412.089 842.931 404.529 842.931 404.529L828.761 380.369Z" fill="#C7DAF5"/>
<path opacity="0.1" d="M828.761 380.369C828.761 380.369 814.761 395.369 825.361 403.729C835.961 412.089 842.931 404.529 842.931 404.529L828.761 380.369Z" fill="black"/>
<path d="M941.87 281.75C941.87 281.75 940.23 283.31 937.76 285.61C934.24 288.9 929.03 293.71 924.41 297.74C918.01 303.31 912.73 307.4 914.62 303.91C916.51 300.42 916.15 294.34 915.21 288.65C915.14 288.27 915.08 287.89 915.01 287.52C914.232 283.341 913.2 279.214 911.92 275.16C911.92 275.16 922.26 261.8 927.98 256.53C930.11 254.53 931.6 253.71 931.69 255.1C931.79 256.97 933.19 261.1 934.93 265.48C934.98 265.62 935.03 265.75 935.09 265.89C936.25 268.89 937.56 271.97 938.71 274.63C940.47 278.71 941.87 281.75 941.87 281.75Z" fill="#FFB0B1"/>
<path opacity="0.1" d="M935.09 265.89C934.118 271.116 931.761 275.986 928.264 279.99C924.766 283.993 920.258 286.984 915.21 288.65C914.415 284.085 913.316 279.578 911.92 275.16C911.92 275.16 931.39 250.01 931.69 255.1C931.76 257.03 933.28 261.31 935.09 265.89Z" fill="black"/>
<path opacity="0.1" d="M913.27 295.37L915.79 291.82C915.79 291.82 917.46 302 923.6 297.51C929.74 293.02 930.04 331.3 930.04 331.3L923.45 429.83L875.83 426.98L877.18 379.37L882.57 355.37L895.9 320.48L903.83 308.95L913.27 295.37Z" fill="black"/>
<path d="M930.039 331.911L924.039 421.001L923.409 430.441L896.859 428.851L895.859 428.791L875.859 427.591L877.209 379.971L882.599 355.971L895.929 321.081L903.859 309.551L913.299 295.921L915.819 292.381C915.819 292.381 917.489 302.561 923.629 298.071L923.759 297.981C929.759 294.181 930.039 331.911 930.039 331.911Z" fill="#1D2366"/>
<path d="M883.269 347.631C883.269 347.631 880.879 352.631 876.079 351.821C871.279 351.011 871.289 369.821 871.289 369.821C871.289 369.821 868.099 372.821 865.899 370.221C863.699 367.621 857.899 376.411 857.899 376.411L821.559 378.011C821.559 378.011 837.729 385.401 834.559 407.761C834.559 407.761 889.459 404.361 891.259 399.171C893.059 393.981 883.269 347.631 883.269 347.631Z" fill="white"/>
<path opacity="0.03" d="M883.269 347.631C883.269 347.631 880.879 352.631 876.079 351.821C871.279 351.011 871.289 369.821 871.289 369.821C871.289 369.821 868.099 372.821 865.899 370.221C863.699 367.621 857.899 376.411 857.899 376.411L821.559 378.011C821.559 378.011 837.729 385.401 834.559 407.761C834.559 407.761 889.459 404.361 891.259 399.171C893.059 393.981 883.269 347.631 883.269 347.631Z" fill="black"/>
<path d="M777.66 389.76L787.24 397.94L866.1 414.51L856.32 404.53L777.66 389.76Z" fill="white"/>
<path d="M913.418 298.52C912.108 300.52 908.358 310.76 905.228 319.7C902.618 327.15 900.438 333.7 900.438 333.7C900.438 333.7 895.348 366.84 892.748 372.83C890.148 378.82 891.558 402.18 891.558 402.18L881.868 459.87C881.868 459.87 877.478 489.62 870.698 507.39C864.008 524.88 856.558 533.08 856.328 533.34C859.328 529.28 875.678 449.34 875.678 449.34L881.078 348.52C881.078 348.52 881.868 338.94 882.668 330.75C883.468 322.56 899.668 311.38 899.668 311.38L915.288 289.17C916.858 291.27 915.808 294.93 913.418 298.52Z" fill="white"/>
<path d="M872.689 428.09C872.689 428.09 849.689 427.09 838.549 413.71C827.409 400.33 864.299 408.37 864.299 408.37L873.889 410.57L872.689 428.09Z" fill="#FFB0B1"/>
<path opacity="0.1" d="M980.1 581.22C978.868 585.578 978.67 590.163 979.52 594.611C954.43 596.391 927.59 589.611 927.59 589.611C922.59 594.211 909.42 600.991 909.42 600.991L902.24 511.99C897.65 499.99 895.85 437.12 895.85 437.12C895.85 437.12 896.26 433.83 896.85 428.9C896.85 428.78 896.85 428.651 896.9 428.531C898.69 414.761 902.24 388.91 903.98 385.42C906.38 380.62 896.6 367.851 896.6 367.851L901.05 329.9L901.59 325.321C910.97 321.131 918.16 307.751 918.16 307.751L923.68 298.08C929.68 294.23 929.99 331.96 929.99 331.96L923.99 421.05L943.87 415.561C943.87 415.561 983.49 569.84 980.1 581.22Z" fill="black"/>
<path d="M1005.85 587.371C978.501 600.951 928.791 588.371 928.791 588.371C923.791 592.971 910.621 599.751 910.621 599.751L903.431 510.751C898.851 498.751 897.051 435.881 897.051 435.881C897.051 435.881 902.831 388.971 905.231 384.181C905.931 382.781 905.591 380.701 904.761 378.461C900.68 367.799 899.179 356.323 900.381 344.971L902.301 328.661L902.831 324.091C912.221 319.891 919.411 306.511 919.411 306.511L924.411 297.751L933.611 281.611L937.971 273.971L938.711 274.641L944.361 279.761C944.361 279.761 946.761 281.761 950.361 284.761C958.191 291.361 971.721 302.981 978.701 310.091C984.841 316.351 986.781 340.701 987.341 359.031C987.711 371.101 987.491 380.561 987.491 380.561C981.301 390.751 997.491 472.561 997.491 472.561C1001.26 488.371 1005.85 587.371 1005.85 587.371Z" fill="white"/>
<path opacity="0.03" d="M953.351 306.311C953.351 306.311 934.581 342.041 936.761 355.621C938.941 369.201 945.141 384.571 942.151 388.161C941.123 389.521 939.795 390.625 938.27 391.387C936.746 392.148 935.065 392.547 933.361 392.551C930.361 392.751 922.361 398.341 922.361 398.941C922.361 399.541 914.971 399.541 908.361 402.341C901.751 405.141 891.991 406.731 891.991 406.731C891.991 406.731 872.991 406.131 871.221 407.931C869.451 409.731 867.631 420.501 871.421 429.091C875.211 437.681 879.421 444.091 882.601 445.261C885.781 446.431 905.961 439.671 922.331 438.071C938.701 436.471 956.471 423.501 956.471 423.501C956.471 423.501 976.041 416.501 979.471 404.731C982.901 392.961 975.281 328.271 975.281 328.271C975.281 328.271 969.521 298.121 953.351 306.311Z" fill="black"/>
<path opacity="0.03" d="M950.951 303.31C950.951 303.31 932.181 339.05 934.381 352.62C936.581 366.19 942.761 381.57 939.761 385.17C938.737 386.532 937.411 387.637 935.887 388.399C934.364 389.161 932.684 389.558 930.981 389.56C927.981 389.76 919.981 395.35 919.981 395.95C919.981 396.55 912.591 396.55 905.981 399.34C899.371 402.13 889.611 403.73 889.611 403.73C889.611 403.73 870.611 403.13 868.851 404.93C867.091 406.73 865.251 417.51 869.051 426.09C872.851 434.67 877.051 441.09 880.231 442.26C883.411 443.43 903.591 436.67 919.961 435.08C936.331 433.49 954.101 420.5 954.101 420.5C954.101 420.5 973.661 413.5 977.051 401.74C980.441 389.98 972.861 325.27 972.861 325.27C972.861 325.27 967.121 295.13 950.951 303.31Z" fill="black"/>
<path d="M952.76 304.51C952.76 304.51 933.99 340.25 936.19 353.82C938.39 367.39 944.57 382.77 941.58 386.36C940.557 387.725 939.23 388.833 937.704 389.596C936.179 390.36 934.496 390.758 932.79 390.76C929.79 390.96 921.79 396.55 921.79 397.14C921.79 397.73 914.41 397.74 907.79 400.54C901.17 403.34 891.42 404.93 891.42 404.93C891.42 404.93 872.42 404.33 870.65 406.13C868.88 407.93 867.06 418.71 870.85 427.29C874.64 435.87 878.85 442.29 882.03 443.46C885.21 444.63 905.39 437.87 921.76 436.27C938.13 434.67 955.9 421.7 955.9 421.7C955.9 421.7 975.47 414.7 978.9 402.93C982.33 391.16 974.76 326.47 974.76 326.47C974.76 326.47 968.92 296.37 952.76 304.51Z" fill="white"/>
<path opacity="0.1" d="M952.35 400.369C952.35 400.369 937.35 397.369 942.57 402.369C947.79 407.369 947.76 411.749 954.15 411.549C960.54 411.349 952.35 400.369 952.35 400.369Z" fill="black"/>
<path opacity="0.1" d="M977.701 507.949C977.701 507.949 970.921 512.539 983.891 523.119C996.861 533.699 977.701 507.949 977.701 507.949Z" fill="black"/>
<path opacity="0.1" d="M964.76 545.68C964.76 546.28 962.36 567.68 971.34 573.03C980.32 578.38 964.76 545.68 964.76 545.68Z" fill="black"/>
<path d="M822.18 377.961C814.94 378.211 799.3 380.421 807.41 395.551C814.58 408.941 826.63 399.991 833.41 393.201C831.757 386.87 827.737 381.416 822.18 377.961V377.961Z" fill="#FFB0B1"/>
<path d="M833.5 393.08L833.8 392.77L833.5 393.08Z" fill="#FFB0B1"/>
<path opacity="0.1" d="M950.361 285.371C942.681 290.621 936.241 295.051 934.981 295.971C931.541 298.521 924.981 313.491 920.751 321.131C917.381 327.281 906.431 328.861 902.301 329.251L902.831 324.681C912.221 320.481 919.411 307.101 919.411 307.101L937.971 274.561L944.361 280.371C944.361 280.371 946.761 282.371 950.361 285.371Z" fill="black"/>
<path d="M950.361 284.771C942.681 290.021 936.241 294.451 934.981 295.381C931.541 297.921 924.981 312.891 920.751 320.531C917.381 326.681 906.431 328.261 902.301 328.651L902.831 324.081C912.221 319.881 919.411 306.501 919.411 306.501L937.971 273.961L944.361 279.751C944.361 279.751 946.761 281.731 950.361 284.771Z" fill="#DCE7FF"/>
<path d="M935.58 259.29C935.584 265.293 933.763 271.155 930.36 276.1C926.34 281.946 920.357 286.158 913.498 287.97C906.638 289.783 899.356 289.077 892.973 285.98C886.589 282.883 881.528 277.6 878.706 271.09C875.884 264.58 875.49 257.275 877.594 250.499C879.698 243.723 884.161 237.926 890.174 234.159C896.187 230.393 903.351 228.906 910.365 229.97C917.38 231.033 923.782 234.576 928.408 239.956C933.034 245.335 935.579 252.195 935.58 259.29V259.29Z" fill="#FFB0B1"/>
<path opacity="0.1" d="M987.34 359.04C983.279 356.542 979.972 352.989 977.77 348.76C976.1 345.46 974.99 341.65 972.14 339.31C969.57 337.21 966.14 336.7 962.94 335.76C952.42 332.65 943.6 323.05 943.27 312.09C943.11 306.93 944.72 301.78 943.99 296.67C943.575 293.778 942.425 291.04 940.65 288.72C939.769 287.61 938.803 286.57 937.76 285.61C936.36 284.29 934.89 283.01 933.61 281.61C932.804 280.743 932.099 279.787 931.51 278.76C931.035 277.919 930.649 277.031 930.36 276.11C928.36 269.99 930.18 262.73 927.98 256.54L927.86 256.2C927.03 254 925.34 251.8 922.99 251.63C920.64 251.46 918.63 253.41 916.39 254.28C911.7 256.1 906.64 253 902.73 249.84C898.82 246.68 894.41 243.07 889.44 243.77C886.15 244.24 883.55 246.48 880.52 247.64C879.836 247.905 879.13 248.109 878.41 248.25C880.974 241.855 885.686 236.553 891.734 233.254C897.783 229.955 904.792 228.866 911.557 230.174C918.321 231.481 924.42 235.104 928.804 240.419C933.188 245.734 935.584 252.41 935.58 259.3C935.583 261.38 935.366 263.455 934.93 265.49C934.98 265.63 935.03 265.76 935.09 265.9C936.25 268.9 937.56 271.98 938.71 274.64L944.36 279.76C944.36 279.76 946.76 281.76 950.36 284.76C958.19 291.36 971.72 302.98 978.7 310.09C984.84 316.37 986.76 340.71 987.34 359.04Z" fill="black"/>
<path d="M880.171 229.37C881.601 226.46 882.311 223.2 884.021 220.44C886.531 216.44 890.911 213.88 895.411 212.33C907.161 208.28 931.991 202.4 939.411 212.33C940.871 214.33 942.081 216.55 944.101 217.93C945.641 218.98 947.501 219.43 949.191 220.22C953.921 222.44 956.941 227.28 958.551 232.22C960.161 237.16 960.641 242.46 961.821 247.55C963.331 254.08 965.981 260.27 968.621 266.42C971.731 273.68 975.031 281.21 981.031 286.34C989.221 293.34 991.031 303.25 998.631 310.93C1007.63 320.05 1007.34 335.1 1002.7 347.05C1002.09 348.62 1001.4 350.26 1001.64 351.93C1001.88 353.6 1003.12 355.12 1004.29 356.45L1009.21 362C997.571 364.81 984.401 358.73 978.981 348.06C977.311 344.76 976.201 340.96 973.341 338.61C970.781 336.51 967.341 336.01 964.151 335.07C953.631 331.95 944.811 322.34 944.481 311.38C944.321 306.23 945.931 301.08 945.201 295.98C944.794 293.069 943.64 290.312 941.851 287.98C939.101 284.39 934.951 281.98 932.711 277.98C928.921 271.29 931.801 262.6 929.071 255.42C928.231 253.22 926.551 251.02 924.201 250.85C921.851 250.68 919.841 252.63 917.591 253.5C912.911 255.32 907.851 252.23 903.941 249.06C900.031 245.89 895.621 242.29 890.641 243C887.351 243.46 884.761 245.7 881.731 246.87C879.491 247.73 874.951 248.5 872.991 246.61C868.851 242.8 878.441 232.93 880.171 229.37Z" fill="#591D4B"/>
<path opacity="0.1" d="M981.759 344.76C980.079 341.46 978.979 337.66 976.119 335.32C973.559 333.22 970.119 332.71 966.919 331.77C956.409 328.66 947.589 319.05 947.249 308.09C947.089 302.94 948.699 297.78 947.979 292.68C947.561 289.787 946.407 287.05 944.629 284.73C941.869 281.14 937.719 278.73 935.489 274.73C931.699 268.05 934.579 259.36 931.839 252.17C931.009 249.98 929.319 247.78 926.979 247.6C924.639 247.42 922.609 249.39 920.369 250.26C915.689 252.08 910.619 248.98 906.719 245.82C902.819 242.66 898.389 239.05 893.419 239.75C890.129 240.22 887.529 242.46 884.509 243.62C882.269 244.48 877.719 245.26 875.759 243.37C871.639 239.37 881.229 229.52 882.949 225.98C884.379 223.06 885.089 219.81 886.809 217.05C886.899 216.9 887 216.75 887.1 216.6C885.813 217.665 884.703 218.928 883.809 220.34C882.099 223.1 881.389 226.34 879.959 229.27C878.229 232.81 868.639 242.69 872.769 246.66C874.769 248.56 879.269 247.78 881.509 246.92C884.509 245.75 887.129 243.51 890.419 243.05C895.419 242.34 899.819 245.95 903.719 249.11C907.619 252.27 912.719 255.37 917.379 253.55C919.619 252.68 921.579 250.72 923.979 250.9C926.379 251.08 927.979 253.27 928.849 255.47C931.579 262.65 928.699 271.34 932.489 278.03C934.729 281.96 938.879 284.42 941.629 288.03C943.419 290.362 944.573 293.118 944.979 296.03C945.709 301.13 944.099 306.28 944.259 311.43C944.589 322.43 953.409 332 963.929 335.12C967.099 336.06 970.559 336.56 973.119 338.66C975.989 341.01 977.119 344.81 978.759 348.11C984.179 358.78 997.349 364.86 1008.99 362.05L1006.67 359.43C996.58 359.58 986.369 353.84 981.759 344.76Z" fill="black"/>
<path opacity="0.1" d="M912.819 299.12C911.509 301.12 907.759 311.36 904.629 320.3C901.699 319.16 899.039 311.89 899.039 311.89L914.659 289.67C916.259 291.87 915.209 295.52 912.819 299.12Z" fill="black"/>
<path d="M913.421 298.52C912.111 300.52 908.361 310.76 905.231 319.7C902.301 318.57 899.641 311.29 899.641 311.29L915.261 289.08C916.861 291.27 915.811 294.93 913.421 298.52Z" fill="#DCE7FF"/>
<path d="M822.598 400.679L813.938 373.369C813.836 373.05 813.797 372.713 813.825 372.378C813.853 372.044 813.947 371.718 814.101 371.419C814.256 371.121 814.467 370.856 814.724 370.64C814.981 370.424 815.278 370.26 815.598 370.159V370.159C816.243 369.958 816.941 370.02 817.54 370.331C818.139 370.641 818.591 371.177 818.798 371.819L827.458 399.099L826.598 404.809L822.598 400.679Z" fill="#BE8B87"/>
<path opacity="0.1" d="M814.76 370.97C815.406 370.766 816.107 370.826 816.708 371.137C817.31 371.448 817.764 371.985 817.971 372.63L826.63 399.91L825.98 404.19L826.61 404.85L827.471 399.14L818.76 371.86C818.554 371.218 818.102 370.682 817.502 370.372C816.903 370.061 816.205 369.999 815.56 370.2V370.2C815.018 370.376 814.55 370.728 814.23 371.2C814.4 371.109 814.578 371.032 814.76 370.97V370.97Z" fill="white"/>
<path d="M822.602 400.681L827.462 399.141L826.752 403.821L826.602 404.851L825.182 403.371L822.602 400.681Z" fill="#EFC8C4"/>
<path d="M825.18 403.371C825.264 403.264 825.37 403.176 825.49 403.111C825.56 403.067 825.642 403.043 825.725 403.043C825.808 403.043 825.889 403.067 825.96 403.111C826.028 403.193 826.085 403.284 826.13 403.381C826.196 403.491 826.286 403.585 826.393 403.656C826.5 403.727 826.622 403.773 826.75 403.791L826.6 404.791L825.18 403.371Z" fill="#727A9C"/>
<path d="M813.891 383.07C813.891 383.07 831.261 382.97 827.171 390.36C823.081 397.75 816.691 398.64 816.691 398.64L813.891 383.07Z" fill="#FFB0B1"/>
<path d="M705.862 51.4199H705.112C675.272 51.4199 648.882 67.2099 633.702 90.5099C618.522 67.2099 592.132 51.4199 562.292 51.4199H561.542C539.147 51.6333 517.742 60.6759 501.978 76.5827C486.214 92.4894 477.364 113.975 477.352 136.37C477.352 164.18 489.532 203.64 513.282 236.11C558.532 297.98 633.702 352.11 633.702 352.11C633.702 352.11 708.872 297.99 754.112 236.11C777.872 203.64 790.042 164.18 790.042 136.37C790.029 113.977 781.181 92.4926 765.419 76.5862C749.656 60.6797 728.254 51.6359 705.862 51.4199V51.4199ZM695.132 240.87C691.733 240.857 688.418 239.817 685.622 237.886C682.825 235.955 680.678 233.223 679.462 230.05H661.622C660.447 230.043 659.304 229.669 658.352 228.98C657.4 228.292 656.686 227.323 656.312 226.21L650.832 209.7L633.492 270.29C633.154 271.456 632.447 272.482 631.477 273.212C630.507 273.942 629.326 274.338 628.112 274.34H627.762C626.495 274.279 625.287 273.785 624.341 272.94C623.394 272.095 622.766 270.952 622.562 269.7L604.692 162.22L591.632 225.82C591.332 227.028 590.637 228.101 589.656 228.868C588.675 229.635 587.466 230.051 586.222 230.05H561.092C560.338 230.082 559.586 229.961 558.881 229.695C558.175 229.428 557.531 229.022 556.987 228.5C556.443 227.979 556.009 227.352 555.714 226.659C555.418 225.965 555.265 225.219 555.265 224.465C555.265 223.711 555.418 222.965 555.714 222.271C556.009 221.578 556.443 220.951 556.987 220.429C557.531 219.908 558.175 219.501 558.881 219.235C559.586 218.969 560.338 218.848 561.092 218.88H581.822L600.322 133.37C600.625 132.106 601.359 130.986 602.396 130.203C603.434 129.419 604.712 129.021 606.011 129.075C607.31 129.129 608.55 129.633 609.518 130.501C610.487 131.368 611.124 132.545 611.322 133.83L629.572 243.47L645.112 189.26C645.435 188.118 646.119 187.112 647.062 186.391C648.004 185.67 649.155 185.273 650.342 185.26H650.452C651.627 185.26 652.772 185.632 653.724 186.321C654.675 187.011 655.385 187.983 655.752 189.1L665.662 218.91H679.242C680.207 215.977 681.964 213.367 684.319 211.369C686.674 209.371 689.535 208.063 692.587 207.589C695.638 207.114 698.762 207.492 701.612 208.681C704.462 209.87 706.929 211.823 708.739 214.324C710.55 216.826 711.634 219.78 711.872 222.859C712.109 225.938 711.492 229.023 710.087 231.773C708.683 234.523 706.546 236.832 703.912 238.444C701.278 240.057 698.25 240.91 695.162 240.91L695.132 240.87Z" fill="#9690F8"/>
<path d="M159.034 426.236C149.163 441.007 132.099 448.523 132.099 448.523C132.099 448.523 131.046 432.059 140.917 417.281C150.787 402.503 167.859 395 167.859 395C167.859 395 168.912 411.457 159.034 426.236Z" fill="#9690F8"/>
<path d="M167.859 395C167.859 395 158.934 413.37 150.779 419.72C142.623 426.07 132.859 449 132.859 449" stroke="#535461" stroke-width="2" stroke-miterlimit="10"/>
<defs>
<linearGradient id="paint0_linear_133_522" x1="356.329" y1="774.87" x2="356.329" y2="159.53" gradientUnits="userSpaceOnUse">
<stop stop-color="#808080" stop-opacity="0.25"/>
<stop offset="0.54" stop-color="#808080" stop-opacity="0.12"/>
<stop offset="1" stop-color="#808080" stop-opacity="0.1"/>
</linearGradient>
<linearGradient id="paint1_linear_133_522" x1="893.43" y1="767.091" x2="893.43" y2="205.091" gradientUnits="userSpaceOnUse">
<stop stop-color="#808080" stop-opacity="0.25"/>
<stop offset="0.54" stop-color="#808080" stop-opacity="0.12"/>
<stop offset="1" stop-color="#808080" stop-opacity="0.1"/>
</linearGradient>
</defs>
</svg>
