<svg width="888" height="619" viewBox="0 0 888 619" fill="none" xmlns="http://www.w3.org/2000/svg">
<g clip-path="url(#clip0_133_523)">
<path d="M741.957 95.0431L673.455 95.7105C670.235 79.8591 659.416 38.2677 669.159 26.9232C669.603 22.6534 671.677 18.7195 674.949 15.9402C678.22 13.1609 682.438 11.7505 686.723 12.0026V12.0026C697.341 -4.6172 715.025 -2.12184 726.978 8.25797C739.008 12.4087 743.543 19.7828 741.957 29.7897C750.865 37.5877 752.509 47.0751 748.51 57.8746L741.957 95.0431Z" fill="#2F2E41"/>
<path d="M735.362 137.242L685.939 130.399L676.055 115.952C689.671 106.92 694.489 94.3051 688.22 77.1744L722.436 76.4141C720.833 91.6692 725.877 103.481 739.924 110.63L735.362 137.242Z" fill="#FFB9B9"/>
<path d="M674.255 583.02L672.366 608.855C672.28 610.024 672.446 611.199 672.851 612.299C673.256 613.399 673.892 614.4 674.716 615.234C675.54 616.068 676.533 616.717 677.628 617.136C678.723 617.555 679.895 617.735 681.066 617.664L694.335 616.861C694.95 616.823 695.549 616.651 696.09 616.356C696.631 616.061 697.1 615.65 697.464 615.154C697.828 614.657 698.079 614.086 698.197 613.481C698.316 612.877 698.3 612.254 698.151 611.656L690.785 582.193L674.255 583.02Z" fill="#E6E6E6"/>
<path d="M717.216 582.193L709.85 611.656C709.7 612.254 709.685 612.877 709.803 613.481C709.922 614.086 710.172 614.657 710.536 615.154C710.901 615.65 711.37 616.061 711.91 616.356C712.451 616.651 713.05 616.823 713.665 616.861L726.935 617.664C728.105 617.735 729.277 617.555 730.373 617.136C731.468 616.717 732.46 616.068 733.284 615.234C734.108 614.4 734.744 613.399 735.15 612.299C735.555 611.199 735.72 610.024 735.635 608.855L733.745 583.02L717.216 582.193Z" fill="#E6E6E6"/>
<path d="M734.602 586.605L716.694 584.808L698.866 394.238L692.128 584.194L674.534 583.564L644.881 320.484H758.172L734.602 586.605Z" fill="#9690F8"/>
<path d="M707.229 89.3412C726.126 89.3412 741.445 74.0224 741.445 55.1257C741.445 36.229 726.126 20.9102 707.229 20.9102C688.332 20.9102 673.014 36.229 673.014 55.1257C673.014 74.0224 688.332 89.3412 707.229 89.3412Z" fill="#FFB9B9"/>
<path d="M774.9 326.568L636.518 328.089C657.054 249.908 669.339 177.284 647.923 127.358L682.138 110.63C698.636 127.838 717.01 126.064 736.883 109.109L769.578 117.473C763.978 182.944 766.488 253.064 774.9 326.568Z" fill="#9690F8"/>
<path d="M598.5 245.972L684.419 280.188L703.628 285.837C704.488 286.09 705.389 286.167 706.279 286.062C707.168 285.958 708.027 285.674 708.804 285.229C709.582 284.785 710.261 284.187 710.802 283.473C711.342 282.759 711.733 281.943 711.95 281.074C712.331 279.551 712.16 277.941 711.467 276.532C710.775 275.122 709.606 274.004 708.167 273.374L688.221 267.262L628.153 232.286L640.699 199.211L614.467 185.145L598.5 245.972Z" fill="#FFB9B9"/>
<path d="M599.26 183.623C615.607 190 628.609 200.884 638.798 215.557L670.732 169.176L647.922 127.357L599.26 183.623Z" fill="#9690F8"/>
<path d="M745.792 49.5799C731.905 46.0018 718.252 45.5105 704.979 50.0491C696.525 54.1438 686.372 53.7666 675.08 50.3927V16.2559L736.039 17.8814L745.792 49.5799Z" fill="#2F2E41"/>
<path d="M684.134 206.105C681.447 206.108 678.871 207.177 676.971 209.077C675.072 210.977 674.003 213.553 674 216.239L678 299.972C678.003 302.658 679.072 305.234 680.971 307.134C682.871 309.034 685.447 310.102 688.134 310.105H733.866C736.553 310.102 739.129 309.034 741.029 307.134C742.928 305.234 743.997 302.658 744 299.972L748 216.239C747.997 213.553 746.928 210.977 745.029 209.077C743.129 207.177 740.553 206.108 737.866 206.105H684.134Z" fill="#3F3D56"/>
<path d="M813.891 239.646L739.001 269.466L733.351 271.716C733.171 271.786 732.991 271.846 732.801 271.906L713.871 277.476C711.451 278.186 708.101 274.926 706.141 272.676C705.17 271.591 704.62 270.195 704.591 268.74C704.562 267.286 705.055 265.868 705.981 264.746C706.242 264.444 706.53 264.166 706.841 263.916C707.57 263.348 708.429 262.97 709.341 262.816L728.251 259.096C728.929 258.963 729.581 258.719 730.181 258.376L739.001 253.236L784.791 226.576C786.064 225.836 787.034 224.667 787.526 223.279C788.019 221.891 788.003 220.373 787.481 218.996L778.741 195.946C778.205 194.535 778.2 192.978 778.728 191.565C779.257 190.152 780.281 188.979 781.611 188.266L796.091 180.506C796.918 180.062 797.835 179.811 798.774 179.773C799.712 179.735 800.647 179.91 801.508 180.285C802.368 180.661 803.133 181.227 803.743 181.94C804.353 182.654 804.793 183.497 805.031 184.406L817.601 232.286C817.987 233.754 817.823 235.313 817.14 236.669C816.456 238.024 815.301 239.083 813.891 239.646V239.646Z" fill="#FFB9B9"/>
<path d="M818.24 175.259C801.893 181.636 788.891 192.52 778.702 207.193L746.768 160.812L769.578 117.473L818.24 175.259Z" fill="#9690F8"/>
<path d="M730 85.578C715.032 91.8042 699.337 91.5513 683 85.578C687.754 77.464 680.648 71.1091 677 62.9182L738 61.1055C733.335 68.2211 726.452 76.628 730 85.578Z" fill="white"/>
<path d="M737.354 62.4603L736.646 61.7533L737.646 60.7533L743.62 53.7812L744.38 54.4313L738.38 61.4313L737.354 62.4603Z" fill="white"/>
<path d="M672.82 58.2216L672.18 58.9902L678.18 63.9902L678.82 63.2216L672.82 58.2216Z" fill="white"/>
<path d="M739.077 68.3395L728.574 84.8379L729.418 85.375L739.92 68.8766L739.077 68.3395Z" fill="white"/>
<path d="M673.922 68.338L673.078 68.875L683.578 85.375L684.422 84.838L673.922 68.338Z" fill="white"/>
<path d="M741 251.822V269.939L734.694 272.45C734.493 272.528 734.292 272.595 734.08 272.662L712.949 278.88C710.248 279.672 706.509 276.033 704.321 273.522C703.238 272.312 702.624 270.753 702.591 269.129C702.558 267.505 703.109 265.923 704.142 264.67C704.434 264.334 704.755 264.023 705.102 263.744C705.917 263.11 706.875 262.688 707.893 262.516L729.001 258.363C729.758 258.215 730.486 257.943 731.155 257.56L741 251.822Z" fill="white"/>
<path d="M750.14 187.202H746.526C746.526 136.091 736.002 100.473 725.747 100.473L724.844 96.8594C734.041 96.8594 739.904 111.683 743.203 124.12C747.676 140.979 750.14 163.382 750.14 187.202Z" fill="#3F3D56"/>
<path d="M667.024 174.554H663.41C663.41 127.745 674.006 98.666 689.609 98.666L688.706 102.28C677.913 102.28 667.024 124.628 667.024 174.554Z" fill="#3F3D56"/>
<path d="M748.333 197.139C753.323 197.139 757.367 193.094 757.367 188.105C757.367 183.115 753.323 179.07 748.333 179.07C743.344 179.07 739.299 183.115 739.299 188.105C739.299 193.094 743.344 197.139 748.333 197.139Z" fill="#3F3D56"/>
<path d="M652.571 196.237H648.957C648.957 183.285 656.252 172.748 665.219 172.748V176.362C658.244 176.362 652.571 185.278 652.571 196.237Z" fill="#3F3D56"/>
<path d="M681.48 196.237H677.867C677.867 185.278 672.193 176.362 665.219 176.362V172.748C674.186 172.748 681.48 183.285 681.48 196.237Z" fill="#3F3D56"/>
<path d="M679.672 200.753C681.668 200.753 683.286 199.135 683.286 197.139C683.286 195.143 681.668 193.525 679.672 193.525C677.677 193.525 676.059 195.143 676.059 197.139C676.059 199.135 677.677 200.753 679.672 200.753Z" fill="#3F3D56"/>
<path d="M650.762 200.753C652.758 200.753 654.376 199.135 654.376 197.139C654.376 195.143 652.758 193.525 650.762 193.525C648.766 193.525 647.148 195.143 647.148 197.139C647.148 199.135 648.766 200.753 650.762 200.753Z" fill="#3F3D56"/>
<path d="M215.27 75.6969L151.804 86.4445C150.236 86.712 148.625 86.3884 147.282 85.5363C145.939 84.6842 144.96 83.3642 144.534 81.8318C139.949 65.2824 130.362 43.693 139.67 32.8552C140.144 28.2958 142.358 24.0949 145.852 21.1271C149.345 18.1593 153.849 16.6532 158.425 16.9224C169.763 -0.824969 188.647 1.83968 201.411 12.9237C214.256 17.356 219.099 25.2304 217.406 35.9162C222.955 40.7736 225.864 46.2449 226.478 52.2501C226.769 55.5918 226.344 58.9572 225.231 62.1217C224.118 65.2861 222.343 68.1768 220.024 70.6008L215.27 75.6969Z" fill="#2F2E41"/>
<path d="M205.404 125.663L156.203 122.769C161.025 111.702 162.951 101.045 161.027 90.9336H197.686C197.603 98.6974 201.466 112.128 205.404 125.663Z" fill="#9F616A"/>
<path d="M146.18 580.289L144.162 607.877C144.071 609.125 144.247 610.379 144.68 611.554C145.113 612.729 145.792 613.798 146.672 614.688C147.552 615.579 148.612 616.272 149.781 616.719C150.951 617.167 152.202 617.359 153.452 617.284L167.622 616.425C168.279 616.385 168.919 616.201 169.496 615.886C170.074 615.571 170.574 615.133 170.963 614.603C171.352 614.072 171.62 613.462 171.746 612.817C171.873 612.171 171.856 611.506 171.696 610.868L163.831 579.406L146.18 580.289Z" fill="#E6E6E6"/>
<path d="M192.054 579.406L184.188 610.868C184.029 611.506 184.012 612.171 184.139 612.817C184.265 613.462 184.533 614.072 184.921 614.602C185.31 615.133 185.811 615.571 186.389 615.886C186.966 616.201 187.606 616.385 188.263 616.425L202.433 617.284C203.683 617.359 204.934 617.167 206.103 616.719C207.273 616.272 208.333 615.579 209.213 614.688C210.092 613.798 210.772 612.729 211.205 611.554C211.637 610.379 211.814 609.125 211.723 607.877L209.705 580.289L192.054 579.406Z" fill="#E6E6E6"/>
<path d="M210.619 584.118L191.497 582.199L172.46 378.7L165.264 581.543L146.477 580.87L114.812 299.943H235.789L210.619 584.118Z" fill="#9690F8"/>
<path d="M180.324 102.644C200.503 102.644 216.861 86.2857 216.861 66.1071C216.861 45.9284 200.503 29.5703 180.324 29.5703C160.145 29.5703 143.787 45.9284 143.787 66.1071C143.787 86.2857 160.145 102.644 180.324 102.644Z" fill="#9F616A"/>
<path d="M221.501 48.6538C206.672 46.0712 192.093 45.7166 177.92 48.9924C168.892 51.9479 158.05 51.6755 145.992 49.2404V24.6016L211.086 25.7748L221.501 48.6538Z" fill="#2F2E41"/>
<path d="M204.639 95.4238C188.655 102.072 171.895 101.802 154.45 95.4238C159.526 86.7593 151.938 79.9733 148.043 71.2268L213.181 69.291C208.2 76.8894 200.85 85.8666 204.639 95.4238Z" fill="white"/>
<path d="M143.558 66.2372L142.918 67.0059L149.325 72.3447L149.965 71.5761L143.558 66.2372Z" fill="white"/>
<path d="M214.362 77.0305L203.146 94.6484L203.99 95.1855L215.205 77.5677L214.362 77.0305Z" fill="white"/>
<path d="M144.727 77.0314L143.883 77.5684L155.095 95.1879L155.939 94.6509L144.727 77.0314Z" fill="white"/>
<path d="M110.861 232.745L82.8848 215.38L106.744 145.501C109.405 138.291 114.502 132.237 121.154 128.386L129.191 123.732L129.89 194.227L110.861 232.745Z" fill="#9690F8"/>
<path d="M231.79 266.683L227.651 231.231C227.43 212.518 230.613 194.426 238.204 177.756L242.063 125.662L199.616 108.297C199.486 109.162 199.375 110.026 199.251 110.891L179.357 120.838L159.955 116.429L160.062 110.226L121.474 127.591C134.235 186.919 127.275 248.529 105.33 321.3L156.167 335.201L156.59 310.79L201.896 307.554C202.363 315.474 202.738 323.253 202.956 330.86C228.521 340.272 229.399 340.116 252.692 326.639C243.416 307.136 236.071 286.842 231.79 266.683Z" fill="#9690F8"/>
<path d="M297.051 224.062L271.004 215.38L229.34 166.877L242.062 125.662L299.945 206.698L297.051 224.062Z" fill="#9690F8"/>
<path d="M215.419 261.613C215.845 263.483 216.995 265.108 218.618 266.131C220.24 267.155 222.202 267.493 224.074 267.072L246.185 262.064L242.989 247.951L220.878 252.957C219.006 253.382 217.38 254.532 216.356 256.155C215.332 257.778 214.995 259.741 215.419 261.613V261.613Z" fill="#E6E6E6"/>
<path d="M235.309 245.288L247.85 268.441C268.944 262.558 287.226 244.01 304.768 222.135L299.944 206.699L270.038 214.417L235.309 245.288Z" fill="#9690F8"/>
<path d="M71.7891 172.66L95.8651 176.959L150.896 255.206L121.661 248.327L71.7891 172.66Z" fill="#E6E6E6"/>
<path d="M67.5189 171.703C67.152 171.709 66.7934 171.813 66.4804 172.004C66.1675 172.196 65.9118 172.468 65.7401 172.792C65.5684 173.116 65.4869 173.481 65.5042 173.847C65.5216 174.214 65.6371 174.569 65.8387 174.876L117.278 252.922C117.565 253.358 118.008 253.668 118.517 253.787L142.45 259.418C142.854 259.513 143.276 259.483 143.663 259.332C144.049 259.181 144.38 258.917 144.612 258.573C144.844 258.23 144.967 257.824 144.963 257.409C144.959 256.995 144.829 256.591 144.591 256.252L88.1133 175.949C87.9601 175.73 87.7654 175.543 87.5401 175.4C87.3148 175.257 87.0635 175.159 86.8005 175.113L67.9047 171.738C67.7774 171.715 67.6483 171.703 67.5189 171.703Z" fill="#3F3D56"/>
<path d="M99.6074 227.505L101.037 241.905L123.597 239.666C125.506 239.476 127.262 238.536 128.479 237.052C129.695 235.568 130.272 233.661 130.082 231.751C129.893 229.842 128.952 228.086 127.468 226.869C125.984 225.653 124.077 225.076 122.168 225.266L99.6074 227.505Z" fill="#E6E6E6"/>
<path d="M79.9902 225.838C80.023 230.748 81.9951 235.446 85.4767 238.909C88.9583 242.371 93.6673 244.317 98.5775 244.323H102.287L104.988 221.817L82.6272 213.768L79.9902 225.838Z" fill="#9690F8"/>
<path d="M211.398 71.7806L210.691 71.0736L211.759 70.0056L218.14 62.5586L218.899 63.2086L212.492 70.6836L211.398 71.7806Z" fill="white"/>
<path d="M339 615.106H549V360.39C549 346.902 535.715 335.93 519.386 335.93H368.614C352.285 335.93 339 346.902 339 360.39V615.106Z" fill="#E6E6E6"/>
<path d="M355 594.573C355 600.096 359.477 604.573 365 604.573H523C528.523 604.573 533 600.096 533 594.573V388.671C533 377.238 521.739 367.938 507.898 367.938H380.102C366.26 367.938 355 377.238 355 388.671V594.573Z" fill="white"/>
<path d="M359.385 336C355.313 336 352 339.489 352 343.776V366.224C352 370.511 355.313 374 359.385 374H526.616C530.687 374 534 370.511 534 366.224V343.776C534 339.489 530.687 336 526.616 336H359.385Z" fill="#3F3D56"/>
<path d="M381.181 576.889C378.744 576.896 376.409 577.867 374.686 579.59C372.963 581.313 371.992 583.648 371.984 586.085V586.085C371.992 588.522 372.963 590.857 374.686 592.58C376.409 594.304 378.744 595.275 381.181 595.282H398.395V576.889H381.181Z" fill="#3F3D56"/>
<path d="M414.194 576.889H397.451V595.282H414.194C416.631 595.275 418.966 594.304 420.689 592.581C422.412 590.857 423.383 588.522 423.391 586.085V586.085C423.383 583.648 422.412 581.313 420.689 579.59C418.966 577.867 416.631 576.896 414.194 576.889V576.889Z" fill="#9690F8"/>
<path opacity="0.2" d="M420.195 579.141C421.645 580.804 422.445 582.935 422.447 585.142V585.142C422.44 587.579 421.469 589.914 419.746 591.637C418.023 593.36 415.687 594.331 413.251 594.338H397.451V595.282H414.194C416.631 595.275 418.966 594.303 420.689 592.58C422.412 590.857 423.383 588.522 423.391 586.085C423.388 584.766 423.102 583.463 422.55 582.264C421.999 581.066 421.195 580 420.195 579.141V579.141Z" fill="black"/>
<path d="M458.862 438.362C457.185 436.593 454.877 435.56 452.441 435.488C450.005 435.416 447.64 436.311 445.862 437.978V437.978C444.093 439.655 443.06 441.963 442.988 444.399C442.916 446.835 443.811 449.2 445.478 450.978L457.286 463.504L470.67 450.888L458.862 438.362Z" fill="#3F3D56"/>
<path d="M481.507 462.386L470.023 450.203L456.639 462.82L468.123 475.003C469.8 476.771 472.108 477.804 474.544 477.876C476.98 477.948 479.345 477.053 481.123 475.387V475.387C482.892 473.71 483.925 471.401 483.997 468.966C484.069 466.53 483.174 464.164 481.507 462.386V462.386Z" fill="#9690F8"/>
<path opacity="0.2" d="M483.985 468.297C483.769 470.493 482.767 472.537 481.163 474.052V474.052C479.385 475.719 477.019 476.614 474.583 476.542C472.148 476.47 469.839 475.437 468.162 473.668L457.325 462.172L456.639 462.819L468.123 475.002C469.8 476.77 472.108 477.803 474.544 477.875C476.98 477.947 479.345 477.052 481.123 475.386C482.082 474.479 482.833 473.377 483.327 472.154C483.821 470.93 484.045 469.615 483.985 468.297V468.297Z" fill="black"/>
<path d="M409.862 467.362C408.185 465.593 405.877 464.56 403.441 464.488C401.005 464.416 398.64 465.311 396.862 466.978V466.978C395.093 468.655 394.06 470.963 393.988 473.399C393.916 475.835 394.811 478.2 396.478 479.978L408.286 492.504L421.67 479.888L409.862 467.362Z" fill="#3F3D56"/>
<path d="M432.507 491.386L421.023 479.203L407.639 491.82L419.123 504.003C420.8 505.771 423.108 506.804 425.544 506.876C427.98 506.948 430.345 506.053 432.123 504.387V504.387C433.892 502.71 434.925 500.401 434.997 497.966C435.069 495.53 434.174 493.164 432.507 491.386V491.386Z" fill="#9690F8"/>
<path opacity="0.2" d="M434.985 497.297C434.769 499.493 433.767 501.537 432.163 503.052V503.052C430.385 504.719 428.019 505.614 425.583 505.542C423.148 505.47 420.839 504.437 419.162 502.668L408.325 491.172L407.639 491.819L419.123 504.002C420.8 505.77 423.108 506.803 425.544 506.875C427.98 506.947 430.345 506.052 432.123 504.386V504.386C433.082 503.479 433.833 502.377 434.327 501.154C434.821 499.93 435.045 498.615 434.985 497.297Z" fill="black"/>
<path d="M458.862 494.362C457.185 492.593 454.877 491.56 452.441 491.488C450.005 491.416 447.64 492.311 445.862 493.978V493.978C444.093 495.655 443.06 497.963 442.988 500.399C442.916 502.835 443.811 505.2 445.478 506.978L457.286 519.504L470.67 506.888L458.862 494.362Z" fill="#3F3D56"/>
<path d="M481.507 518.386L470.023 506.203L456.639 518.82L468.123 531.003C469.8 532.771 472.108 533.804 474.544 533.876C476.98 533.948 479.345 533.053 481.123 531.387V531.387C482.892 529.71 483.925 527.401 483.997 524.966C484.069 522.53 483.174 520.164 481.507 518.386V518.386Z" fill="#9690F8"/>
<path opacity="0.2" d="M483.985 524.297C483.769 526.493 482.767 528.537 481.163 530.052C479.385 531.719 477.019 532.614 474.583 532.542C472.148 532.47 469.839 531.437 468.162 529.668L457.325 518.172L456.639 518.819L468.123 531.002C469.8 532.77 472.108 533.803 474.544 533.875C476.98 533.947 479.345 533.052 481.123 531.386V531.386C482.082 530.479 482.833 529.377 483.327 528.154C483.821 526.93 484.045 525.615 483.985 524.297V524.297Z" fill="black"/>
<path d="M488.754 551.83C490.502 550.132 491.507 547.811 491.549 545.374C491.591 542.938 490.668 540.583 488.98 538.826V538.826C487.282 537.078 484.961 536.073 482.524 536.031C480.088 535.988 477.733 536.912 475.976 538.6L463.594 550.559L476.372 563.789L488.754 551.83Z" fill="#3F3D56"/>
<path d="M465.008 574.766L477.051 563.134L464.273 549.904L452.23 561.536C450.482 563.234 449.477 565.555 449.435 567.991C449.393 570.428 450.316 572.782 452.004 574.54V574.54C453.702 576.288 456.023 577.293 458.46 577.335C460.896 577.377 463.25 576.454 465.008 574.766V574.766Z" fill="#9690F8"/>
<path opacity="0.2" d="M459.127 577.315C456.929 577.126 454.872 576.149 453.338 574.563V574.563C451.65 572.805 450.726 570.451 450.769 568.014C450.811 565.578 451.816 563.257 453.564 561.559L464.928 550.583L464.273 549.904L452.23 561.536C450.482 563.234 449.477 565.555 449.435 567.991C449.393 570.428 450.316 572.782 452.004 574.54V574.54C452.922 575.487 454.034 576.225 455.263 576.704C456.492 577.183 457.81 577.391 459.127 577.315Z" fill="black"/>
<path d="M422.754 522.83C424.502 521.132 425.507 518.811 425.549 516.374C425.591 513.938 424.668 511.583 422.98 509.826C421.282 508.078 418.961 507.073 416.524 507.031C414.088 506.988 411.733 507.912 409.976 509.6L397.594 521.559L410.372 534.789L422.754 522.83Z" fill="#3F3D56"/>
<path d="M399.008 545.766L411.051 534.134L398.273 520.904L386.23 532.536C384.482 534.234 383.477 536.555 383.435 538.991C383.393 541.428 384.316 543.782 386.004 545.54V545.54C387.702 547.288 390.023 548.293 392.46 548.335C394.896 548.377 397.25 547.454 399.008 545.766V545.766Z" fill="#9690F8"/>
<path opacity="0.2" d="M393.127 548.315C390.929 548.126 388.872 547.149 387.338 545.563C385.65 543.805 384.726 541.451 384.769 539.014C384.811 536.578 385.816 534.257 387.564 532.559L398.928 521.583L398.273 520.904L386.23 532.536C384.482 534.234 383.477 536.555 383.435 538.991C383.393 541.428 384.316 543.782 386.004 545.54V545.54C386.922 546.487 388.034 547.225 389.263 547.704C390.492 548.183 391.81 548.391 393.127 548.315V548.315Z" fill="black"/>
<path d="M516.754 487.83C518.502 486.132 519.507 483.811 519.549 481.374C519.591 478.938 518.668 476.583 516.98 474.826V474.826C515.282 473.078 512.961 472.073 510.524 472.031C508.088 471.988 505.733 472.912 503.976 474.6L491.594 486.559L504.372 499.789L516.754 487.83Z" fill="#3F3D56"/>
<path d="M493.008 510.766L505.051 499.134L492.273 485.904L480.23 497.536C478.482 499.234 477.477 501.555 477.435 503.991C477.393 506.428 478.316 508.782 480.004 510.54V510.54C481.702 512.288 484.023 513.293 486.46 513.335C488.896 513.377 491.25 512.454 493.008 510.766Z" fill="#9690F8"/>
<path opacity="0.2" d="M487.127 513.315C484.929 513.126 482.872 512.149 481.338 510.563V510.563C479.65 508.805 478.726 506.451 478.769 504.014C478.811 501.578 479.816 499.257 481.564 497.559L492.928 486.583L492.273 485.904L480.23 497.536C478.482 499.234 477.477 501.555 477.435 503.991C477.393 506.428 478.316 508.782 480.004 510.54V510.54C480.922 511.487 482.034 512.225 483.263 512.704C484.492 513.183 485.81 513.391 487.127 513.315Z" fill="#9690F8"/>
<path d="M495.862 560.362C494.185 558.593 491.877 557.56 489.441 557.488C487.005 557.416 484.64 558.311 482.862 559.978V559.978C481.093 561.655 480.06 563.963 479.988 566.399C479.916 568.835 480.811 571.2 482.478 572.978L494.286 585.504L507.67 572.888L495.862 560.362Z" fill="#3F3D56"/>
<path d="M518.507 584.386L507.023 572.203L493.639 584.82L505.123 597.003C506.8 598.771 509.108 599.804 511.544 599.876C513.98 599.948 516.345 599.053 518.123 597.387V597.387C519.892 595.71 520.925 593.401 520.997 590.966C521.069 588.53 520.174 586.164 518.507 584.386Z" fill="#9690F8"/>
<path opacity="0.2" d="M520.985 590.297C520.769 592.493 519.767 594.537 518.163 596.052V596.052C516.385 597.719 514.019 598.614 511.583 598.542C509.148 598.47 506.839 597.437 505.162 595.668L494.325 584.172L493.639 584.819L505.123 597.002C506.8 598.77 509.108 599.803 511.544 599.875C513.98 599.947 516.345 599.052 518.123 597.386V597.386C519.082 596.479 519.833 595.377 520.327 594.154C520.821 592.93 521.045 591.615 520.985 590.297V590.297Z" fill="black"/>
<path d="M430.862 559.362C429.185 557.593 426.877 556.56 424.441 556.488C422.005 556.416 419.64 557.311 417.862 558.978V558.978C416.093 560.655 415.06 562.963 414.988 565.399C414.916 567.835 415.811 570.2 417.478 571.978L429.286 584.504L442.67 571.888L430.862 559.362Z" fill="#3F3D56"/>
<path d="M453.507 583.386L442.023 571.203L428.639 583.82L440.123 596.003C441.8 597.771 444.108 598.804 446.544 598.876C448.98 598.948 451.345 598.053 453.123 596.387V596.387C454.892 594.71 455.925 592.401 455.997 589.966C456.069 587.53 455.174 585.164 453.507 583.386V583.386Z" fill="#9690F8"/>
<path opacity="0.2" d="M455.985 589.297C455.769 591.493 454.767 593.537 453.163 595.052V595.052C451.385 596.719 449.019 597.614 446.583 597.542C444.148 597.47 441.839 596.437 440.162 594.668L429.325 583.172L428.639 583.819L440.123 596.002C441.8 597.77 444.108 598.803 446.544 598.875C448.98 598.947 451.345 598.052 453.123 596.386V596.386C454.082 595.479 454.833 594.377 455.327 593.154C455.821 591.93 456.045 590.615 455.985 589.297Z" fill="black"/>
<path d="M449.157 526.369C449.158 529.426 448.102 532.39 446.168 534.759C444.235 537.127 441.542 538.755 438.547 539.366C436.796 539.72 434.992 539.72 433.241 539.366C430.246 538.754 427.554 537.126 425.62 534.758C423.687 532.39 422.631 529.426 422.631 526.369C422.631 523.311 423.687 520.348 425.62 517.979C427.554 515.611 430.246 513.983 433.241 513.371C434.992 513.017 436.796 513.017 438.547 513.371C441.542 513.982 444.235 515.61 446.168 517.979C448.102 520.347 449.158 523.311 449.157 526.369V526.369Z" fill="#6C63FF"/>
<path opacity="0.2" d="M438.547 513.371V539.366C436.797 539.72 434.993 539.72 433.242 539.366V513.371C434.993 513.017 436.797 513.017 438.547 513.371Z" fill="black"/>
<path d="M455.157 473.369C455.158 476.426 454.102 479.39 452.168 481.759C450.235 484.127 447.542 485.755 444.547 486.366C442.796 486.72 440.992 486.72 439.241 486.366C436.246 485.754 433.554 484.126 431.62 481.758C429.687 479.39 428.631 476.426 428.631 473.369C428.631 470.311 429.687 467.348 431.62 464.979C433.554 462.611 436.246 460.983 439.241 460.371C440.992 460.017 442.796 460.017 444.547 460.371C447.542 460.982 450.235 462.61 452.168 464.979C454.102 467.347 455.158 470.311 455.157 473.369V473.369Z" fill="#6C63FF"/>
<path opacity="0.2" d="M444.547 460.371V486.366C442.797 486.72 440.993 486.72 439.242 486.366V460.371C440.993 460.017 442.797 460.017 444.547 460.371Z" fill="black"/>
<path d="M455.157 549.369C455.158 552.426 454.102 555.39 452.168 557.759C450.235 560.127 447.542 561.755 444.547 562.366C442.796 562.72 440.992 562.72 439.241 562.366C436.246 561.754 433.554 560.126 431.62 557.758C429.687 555.39 428.631 552.426 428.631 549.369C428.631 546.311 429.687 543.348 431.62 540.979C433.554 538.611 436.246 536.983 439.241 536.371C440.992 536.017 442.796 536.017 444.547 536.371C447.542 536.982 450.235 538.61 452.168 540.979C454.102 543.347 455.158 546.311 455.157 549.369V549.369Z" fill="#6C63FF"/>
<path opacity="0.2" d="M444.547 536.371V562.366C442.797 562.72 440.993 562.72 439.242 562.366V536.371C440.993 536.017 442.797 536.017 444.547 536.371Z" fill="black"/>
<path d="M488.157 586.369C488.158 589.426 487.102 592.39 485.168 594.759C483.235 597.127 480.542 598.755 477.547 599.366C475.796 599.72 473.992 599.72 472.241 599.366C469.246 598.754 466.554 597.126 464.62 594.758C462.687 592.39 461.631 589.426 461.631 586.369C461.631 583.311 462.687 580.348 464.62 577.979C466.554 575.611 469.246 573.983 472.241 573.371C473.992 573.017 475.796 573.017 477.547 573.371C480.542 573.982 483.235 575.61 485.168 577.979C487.102 580.347 488.158 583.311 488.157 586.369V586.369Z" fill="#6C63FF"/>
<path opacity="0.2" d="M477.547 573.371V599.366C475.797 599.72 473.993 599.72 472.242 599.366V573.371C473.993 573.017 475.797 573.017 477.547 573.371Z" fill="black"/>
<path d="M517.31 518.294C519.512 520.415 520.914 523.232 521.277 526.268C521.641 529.304 520.944 532.372 519.305 534.954C518.345 536.459 517.093 537.758 515.624 538.773C513.104 540.505 510.064 541.314 507.017 541.062C503.97 540.811 501.103 539.514 498.902 537.393C496.7 535.271 495.299 532.454 494.936 529.418C494.572 526.383 495.269 523.314 496.907 520.733C497.867 519.227 499.119 517.928 500.588 516.913C503.108 515.18 506.148 514.372 509.195 514.623C512.243 514.875 515.109 516.171 517.31 518.294V518.294Z" fill="#6C63FF"/>
<path opacity="0.2" d="M500.588 516.912L519.305 534.953C518.345 536.459 517.093 537.757 515.623 538.772L496.906 520.732C497.867 519.226 499.118 517.927 500.588 516.912V516.912Z" fill="black"/>
<path d="M521.31 547.294C523.512 549.415 524.914 552.232 525.277 555.268C525.641 558.304 524.944 561.372 523.305 563.954C522.345 565.459 521.093 566.758 519.624 567.773C517.104 569.505 514.064 570.314 511.017 570.062C507.97 569.811 505.103 568.514 502.902 566.393C500.7 564.271 499.299 561.454 498.936 558.418C498.572 555.383 499.269 552.314 500.907 549.733C501.867 548.227 503.119 546.928 504.588 545.913C507.108 544.18 510.148 543.372 513.195 543.623C516.243 543.875 519.109 545.171 521.31 547.294V547.294Z" fill="#6C63FF"/>
<path opacity="0.2" d="M504.588 545.912L523.305 563.953C522.345 565.459 521.093 566.757 519.623 567.772L500.906 549.732C501.867 548.226 503.118 546.927 504.588 545.912V545.912Z" fill="black"/>
<path d="M402.31 554.294C404.512 556.415 405.914 559.232 406.277 562.268C406.641 565.304 405.944 568.372 404.305 570.954C403.345 572.459 402.093 573.758 400.624 574.773C398.104 576.505 395.064 577.314 392.017 577.062C388.97 576.811 386.103 575.514 383.902 573.393C381.7 571.271 380.299 568.454 379.936 565.418C379.572 562.383 380.269 559.314 381.907 556.733C382.867 555.227 384.119 553.928 385.588 552.913C388.108 551.18 391.148 550.372 394.195 550.623C397.243 550.875 400.109 552.171 402.31 554.294V554.294Z" fill="#6C63FF"/>
<path opacity="0.2" d="M385.588 552.912L404.305 570.953C403.345 572.459 402.093 573.757 400.623 574.772L381.906 556.732C382.867 555.226 384.118 553.927 385.588 552.912V552.912Z" fill="black"/>
<path opacity="0.2" d="M377 336H372V373H377V336Z" fill="black"/>
<path opacity="0.2" d="M399 336H396V373H399V336Z" fill="black"/>
<path opacity="0.2" d="M422 336H419V373H422V336Z" fill="black"/>
<path opacity="0.2" d="M445 336H441V373H445V336Z" fill="black"/>
<path opacity="0.2" d="M467 336H464V373H467V336Z" fill="black"/>
<path opacity="0.2" d="M490 336H487V373H490V336Z" fill="black"/>
<path opacity="0.2" d="M514 336H509V373H514V336Z" fill="black"/>
<path opacity="0.1" d="M231.149 296.746C326.011 299.166 404.01 333.532 490.025 353.852C509.191 358.38 529.255 362.271 550.364 362.966C620.292 365.271 683.728 332.776 753.925 333.157C810.818 333.465 859.754 356.513 881.07 384.714C902.387 412.916 900.222 445.244 889.78 475.839C873.425 523.618 835.438 571.282 767.801 604.078C756.64 609.492 744.146 614.618 729.65 616.208C705.493 618.882 682.787 611.208 661.622 604.936C566.101 576.615 446.292 572.305 341.233 593.408C305.653 600.554 271.714 610.437 235.248 615.908C165.023 626.429 84.9489 618.225 36.2154 590.385C-12.5181 562.545 -21.7492 514.65 22.9262 482.94C41.5768 469.706 67.5391 459.976 87.1501 447.156C136.428 414.976 116.96 384.528 109.664 348.753C102.476 313.501 175.731 295.335 231.149 296.746Z" fill="#6C63FF"/>
</g>
<defs>
<clipPath id="clip0_133_523">
<rect width="888" height="618.106" fill="white"/>
</clipPath>
</defs>
</svg>
